<?xml version="1.0" encoding="UTF-8"?>
<svg id="_レイヤー_1" data-name="レイヤー 1" xmlns="http://www.w3.org/2000/svg" viewBox="0 0 30 30">
  <defs>
    <style>
      .cls-1 {
        fill: #fff;
      }

      .cls-2 {
        fill: #0000be;
      }
    </style>
  </defs>
  <g>
    <rect class="cls-1" x="1" y="1" width="28" height="28" rx="4" ry="4"/>
    <path class="cls-2" d="m25,2c1.65,0,3,1.35,3,3v20c0,1.65-1.35,3-3,3H5c-1.65,0-3-1.35-3-3V5c0-1.65,1.35-3,3-3h20m0-2H5C2.24,0,0,2.24,0,5v20c0,2.76,2.24,5,5,5h20c2.76,0,5-2.24,5-5V5c0-2.76-2.24-5-5-5h0Z"/>
  </g>
  <g>
    <path class="cls-2" d="m5.6,12.29l-.67,1.82c-.15.39-.4.59-.76.59-.14,0-.28-.04-.43-.11-.26-.14-.4-.34-.4-.6,0-.12.03-.26.08-.4l2.68-7.02c.24-.62.62-.94,1.15-.94s.92.31,1.16.94l2.68,7.02c.05.14.08.28.08.42,0,.25-.13.45-.38.58-.15.08-.3.12-.45.12-.36,0-.61-.2-.75-.59l-.67-1.82h-3.31Zm1.65-5l-1.19,3.6h2.36l-1.17-3.6Z"/>
    <path class="cls-2" d="m12.71,7.26h-2.39c-.11,0-.2-.03-.28-.08-.19-.12-.29-.34-.29-.64,0-.25.07-.45.22-.59.09-.09.21-.14.35-.14h6.36c.12,0,.22.03.31.1.17.14.26.35.26.63s-.08.47-.23.6c-.09.08-.21.12-.34.12h-2.39v6.76c0,.2-.07.36-.2.48-.15.14-.35.21-.59.21-.33,0-.56-.11-.7-.34-.06-.1-.09-.21-.09-.35v-6.76Z"/>
    <path class="cls-2" d="m19.22,7.48l.07,6.57c0,.12-.02.22-.08.32-.13.22-.36.33-.67.33-.25,0-.44-.07-.58-.22-.11-.11-.16-.26-.16-.43v-7.09c0-.41.13-.73.4-.97.23-.21.53-.32.9-.32.66,0,1.09.34,1.31,1.02l1.85,5.76,1.85-5.76c.21-.68.65-1.02,1.32-1.02.42,0,.75.14.99.42.2.23.3.52.3.87v7.09c0,.17-.05.31-.16.42-.14.15-.34.23-.58.23s-.46-.08-.61-.25c-.1-.11-.15-.24-.14-.4l.07-6.57-2.04,6.21c-.06.16-.13.31-.22.43-.2.26-.46.39-.76.39-.49,0-.82-.27-1-.81l-2.04-6.21Z"/>
  </g>
  <g>
    <g>
      <rect class="cls-1" x="5" y="16.47" width="20" height="9" rx="1" ry="1"/>
      <path class="cls-2" d="m24,16.97c.28,0,.5.22.5.5v7c0,.28-.22.5-.5.5H6c-.28,0-.5-.22-.5-.5v-7c0-.28.22-.5.5-.5h18m0-1H6c-.83,0-1.5.67-1.5,1.5v7c0,.83.67,1.5,1.5,1.5h18c.83,0,1.5-.67,1.5-1.5v-7c0-.83-.67-1.5-1.5-1.5h0Z"/>
    </g>
    <g>
      <polygon class="cls-2" points="13.87 19.87 14.36 20.51 14.38 20.53 14.38 20.54 13.33 20.54 13.33 20.98 14.66 20.98 14.66 21.47 13.33 21.47 13.33 21.91 14.66 21.91 14.66 23.05 15.34 23.05 15.34 21.91 16.67 21.91 16.67 21.48 16.67 21.48 16.67 21.47 15.34 21.47 15.34 20.98 16.67 20.98 16.67 20.55 16.67 20.55 16.67 20.54 16.01 20.54 15.76 20.54 15.62 20.54 15.64 20.51 16.13 19.87 16.59 19.27 16.85 18.92 16.87 18.9 16.87 18.9 16.87 18.9 16.87 18.9 16.87 18.89 16 18.89 15.35 19.74 15.28 19.84 15.05 20.13 15.01 20.19 15 20.2 14.72 19.84 14.64 19.74 14 18.89 13.46 18.89 13.16 18.89 13.13 18.89 13.13 18.89 13.13 18.89 13.13 18.89 13.13 18.89 13.87 19.87"/>
      <rect class="cls-2" x="18.17" y="20.83" width="2.64" height=".28"/>
      <rect class="cls-2" x="9.19" y="20.83" width="2.64" height=".28"/>
    </g>
  </g>
</svg>