<?xml version="1.0" encoding="UTF-8"?>
<svg id="_レイヤー_1" data-name="レイヤー 1" xmlns="http://www.w3.org/2000/svg" viewBox="0 0 30 30">
  <defs>
    <style>
      .cls-1 {
        fill: #fff;
      }

      .cls-2 {
        fill: #0000be;
      }
    </style>
  </defs>
  <g>
    <rect class="cls-1" x="1" y="1" width="28" height="28" rx="4" ry="4"/>
    <path class="cls-2" d="m25,2c1.65,0,3,1.35,3,3v20c0,1.65-1.35,3-3,3H5c-1.65,0-3-1.35-3-3V5c0-1.65,1.35-3,3-3h20m0-2H5C2.24,0,0,2.24,0,5v20c0,2.76,2.24,5,5,5h20c2.76,0,5-2.24,5-5V5c0-2.76-2.24-5-5-5h0Z"/>
  </g>
  <g>
    <path class="cls-2" d="m12.18,20.13c.29.25.69.5,1.18.68.49.18,1.05.3,1.66.29.6,0,1.17-.14,1.65-.32.48-.19.88-.45,1.17-.7.58-.52.75-.98.63-1.09-.14-.13-.53.07-1.12.32-.3.12-.65.25-1.04.34-.09.02-.18.04-.28.06-.02,0-.04,0-.06.01-.19.03-.38.06-.58.07-.03,0-.05,0-.08,0-.1,0-.2.01-.3.01-.1,0-.2,0-.3,0-.03,0-.05,0-.08,0-.2-.01-.39-.04-.58-.07-.02,0-.04,0-.06-.01-.09-.02-.19-.03-.28-.05-.4-.09-.75-.21-1.05-.32-.6-.23-.99-.43-1.13-.3-.12.11.06.57.65,1.08Z"/>
    <path class="cls-2" d="m19.63,16.17c.71,0,1.28-.57,1.28-1.28s-.57-1.28-1.28-1.28-1.28.57-1.28,1.28c0,.71.57,1.28,1.28,1.28Z"/>
    <circle class="cls-2" cx="10.37" cy="14.89" r="1.28"/>
    <path class="cls-2" d="m15,3.5c-6.34,0-11.5,5.16-11.5,11.5s5.16,11.5,11.5,11.5,11.5-5.16,11.5-11.5S21.34,3.5,15,3.5ZM5.93,15.83c-.35-3.93,1.81-7.4,5.06-9-.72,1.82-.36,3.97,1.1,5.45.82.83,1.89,1.24,2.97,1.24,1,0,2-.35,2.79-1.06.61-.55,1.03-1.3,1.14-2.11.15-1.1-.21-2.16-.97-2.93-.63-.64-1.55-.93-2.44-.8-2.57.37-3.06,3.13-1.47,4.42.35.28.8.43,1.25.43h.01s.01,0,.02,0c.74,0,1.1-.93.58-1.47,0,0,0,0,0,0,0,0,0,0,0,0,0,0,0,0,0,0-.16.16-.38.24-.61.24-.23,0-.43-.1-.59-.26-.64-.66-.38-1.86.77-2.07.88-.16,1.73.27,2.07,1.09.16.39.22.83.14,1.27-.08.47-.33.9-.68,1.23-1.16,1.1-2.99,1.07-4.12-.07-1.43-1.45-1.47-3.75-.13-5.25,1.22-.3,2.54-.36,3.9-.1,1.01.19,1.96.56,2.81,1.06,1.72,1.01,3.08,2.57,3.86,4.4.38.92.62,1.91.68,2.93.32,5.36-4.03,9.8-9.35,9.65-.01,0-.03,0-.04,0-.16,0-.32-.01-.49-.03-1.09-.09-2.13-.38-3.08-.83-1.89-.9-3.44-2.45-4.36-4.34-.45-.95-.75-1.98-.84-3.07Z"/>
  </g>
</svg>