<?xml version="1.0" encoding="UTF-8"?>
<svg id="_レイヤー_1" data-name="レイヤー 1" xmlns="http://www.w3.org/2000/svg" viewBox="0 0 30 30">
  <defs>
    <style>
      .cls-1 {
        fill: #fff;
      }

      .cls-2 {
        fill: #ccc;
      }
    </style>
  </defs>
  <g>
    <rect class="cls-1" x="1" y="1" width="28" height="28" rx="4" ry="4"/>
    <path class="cls-2" d="m25,2c1.65,0,3,1.35,3,3v20c0,1.65-1.35,3-3,3H5c-1.65,0-3-1.35-3-3V5c0-1.65,1.35-3,3-3h20m0-2H5C2.24,0,0,2.24,0,5v20c0,2.76,2.24,5,5,5h20c2.76,0,5-2.24,5-5V5c0-2.76-2.24-5-5-5h0Z"/>
  </g>
  <g>
    <path class="cls-2" d="m19.5,21.81c-1.18,1.8-3.21,3-5.52,3-3.64,0-6.59-2.96-6.59-6.59,0-2.19,1.07-4.13,2.71-5.33l-.36-2.73c-2.89,1.53-4.87,4.57-4.87,8.06,0,5.02,4.08,9.11,9.11,9.11,3.45,0,6.46-1.93,8-4.77l-2.48-.74Z"/>
    <circle class="cls-2" cx="11.9" cy="5.72" r="2.17"/>
    <path class="cls-2" d="m25.94,23.33l-2.2-7.1c-.16-.53-.65-.88-1.2-.88h-8.15l-.24-1.57h3.99c.69,0,1.26-.56,1.26-1.26s-.56-1.26-1.26-1.26h-4.37l-.26-1.7c-.1-.69-.74-1.16-1.43-1.05-.69.1-1.16.74-1.05,1.43l1.04,6.85c.09.61.62,1.07,1.24,1.07h8.31l1.92,6.21c.17.54.66.88,1.2.88.12,0,.25-.02.37-.06.66-.21,1.03-.91.83-1.57Z"/>
  </g>
</svg>