<?xml version="1.0" encoding="UTF-8"?>
<svg id="_レイヤー_1" data-name="レイヤー 1" xmlns="http://www.w3.org/2000/svg" viewBox="0 0 30 30">
  <defs>
    <style>
      .cls-1 {
        fill: #fff;
      }

      .cls-2 {
        fill: #ccc;
      }
    </style>
  </defs>
  <g>
    <rect class="cls-1" x="1" y="1" width="28" height="28" rx="4" ry="4"/>
    <path class="cls-2" d="m25,2c1.65,0,3,1.35,3,3v20c0,1.65-1.35,3-3,3H5c-1.65,0-3-1.35-3-3V5c0-1.65,1.35-3,3-3h20m0-2H5C2.24,0,0,2.24,0,5v20c0,2.76,2.24,5,5,5h20c2.76,0,5-2.24,5-5V5c0-2.76-2.24-5-5-5h0Z"/>
  </g>
  <g>
    <rect class="cls-2" x="3.92" y="22.38" width="13.37" height="2.51"/>
    <path class="cls-2" d="m15.59,5.11H5.62c-.49,0-.9.4-.9.9v15.18h11.77V6.01c0-.49-.4-.9-.9-.9Zm-5.6,14.04l.23-2.82-1.48.2,2.48-4.04-.23,2.79,1.47-.25-2.48,4.12Zm3.91-8.52h-6.59v-3.05h6.59v3.05Z"/>
    <path class="cls-2" d="m22.99,15.01v2.45c0,.88-.72,1.6-1.6,1.6s-1.6-.72-1.6-1.6v-2.71c0-1.46-1.08-2.66-2.49-2.86v1.3c.69.18,1.21.81,1.21,1.55v2.71c0,1.59,1.29,2.88,2.88,2.88s2.88-1.29,2.88-2.88v-2.45h-1.28Z"/>
    <path class="cls-2" d="m22.76,14.23h1.75c.86,0,1.57-.71,1.57-1.57v-2.51h-4.89v2.51c0,.86.71,1.57,1.57,1.57Z"/>
    <rect class="cls-2" x="22.05" y="7.7" width="1.02" height="1.84"/>
    <rect class="cls-2" x="24.21" y="7.7" width="1.02" height="1.84"/>
  </g>
</svg>