<?xml version="1.0" encoding="UTF-8"?>
<svg id="_レイヤー_1" data-name="レイヤー 1" xmlns="http://www.w3.org/2000/svg" viewBox="0 0 30 30">
  <defs>
    <style>
      .cls-1, .cls-2 {
        fill: #fff;
      }

      .cls-2 {
        stroke: #0000be;
        stroke-linecap: round;
        stroke-linejoin: round;
        stroke-width: 1.5px;
      }

      .cls-3 {
        fill: #0000be;
      }
    </style>
  </defs>
  <g>
    <rect class="cls-1" x="1" y="1" width="28" height="28" rx="4" ry="4"/>
    <path class="cls-3" d="m25,2c1.65,0,3,1.35,3,3v20c0,1.65-1.35,3-3,3H5c-1.65,0-3-1.35-3-3V5c0-1.65,1.35-3,3-3h20m0-2H5C2.24,0,0,2.24,0,5v20c0,2.76,2.24,5,5,5h20c2.76,0,5-2.24,5-5V5c0-2.76-2.24-5-5-5h0Z"/>
  </g>
  <circle class="cls-3" cx="14.73" cy="14.69" r="2.96"/>
  <path class="cls-3" d="m25.31,15.4c-.63-.34-1.42-.1-1.76.53l-2.43,4.51-2.85-1.41c-.31-.13-1.15-.43-1.86-.43,0,0-3.89-.01-4,0l-2.64-3.11.08.12-3.83-5.26c-.35-.48-1.01-.64-1.55-.36-.59.31-.82,1.05-.5,1.64l3.07,5.78.09.13,3.1,4.55.2,4.92h8.61l.14-3.46,2.17.8c.81.3,1.72-.11,2.04-.92l2.52-6.4c.24-.61,0-1.31-.6-1.62Z"/>
  <line class="cls-2" x1="25.14" y1="10.42" x2="19.76" y2="12.26"/>
  <line class="cls-2" x1="14.24" y1="3.79" x2="14.78" y2="9.46"/>
  <line class="cls-2" x1="20.86" y1="4.87" x2="17.86" y2="9.71"/>
</svg>