<?xml version="1.0" encoding="UTF-8"?>
<svg id="_レイヤー_1" data-name="レイヤー 1" xmlns="http://www.w3.org/2000/svg" viewBox="0 0 30 30">
  <defs>
    <style>
      .cls-1 {
        fill: #fff;
      }

      .cls-2 {
        fill: #0000be;
      }
    </style>
  </defs>
  <g>
    <rect class="cls-1" x="1" y="1" width="28" height="28" rx="4" ry="4"/>
    <path class="cls-2" d="m25,2c1.65,0,3,1.35,3,3v20c0,1.65-1.35,3-3,3H5c-1.65,0-3-1.35-3-3V5c0-1.65,1.35-3,3-3h20m0-2H5C2.24,0,0,2.24,0,5v20c0,2.76,2.24,5,5,5h20c2.76,0,5-2.24,5-5V5c0-2.76-2.24-5-5-5h0Z"/>
  </g>
  <g>
    <path class="cls-2" d="m16.74,13.74c.25,0,.43.05.53.15.1.1.15.26.15.49v6.5c0,.23.02.38.06.46s.11.12.2.12c.12,0,.2-.05.25-.14.05-.09.1-.31.15-.64.03-.23.05-.36.08-.41.03-.05.08-.07.16-.07h.34c.08,0,.14.05.17.14s.05.25.05.48c0,1.07-.29,1.89-.86,2.46-.57.57-1.39.86-2.46.86s-1.82-.29-2.37-.87-.83-1.41-.83-2.49v-4.58c0-.47-.07-.82-.2-1.07-.13-.25-.38-.48-.74-.69-.09-.05-.15-.1-.17-.13s-.03-.08-.03-.13v-.24c0-.13.08-.2.24-.2h5.28Z"/>
    <circle class="cls-2" cx="14.5" cy="9.5" r="2.5"/>
  </g>
</svg>