<?xml version="1.0" encoding="UTF-8"?>
<svg id="_レイヤー_1" data-name="レイヤー 1" xmlns="http://www.w3.org/2000/svg" viewBox="0 0 30 30">
  <defs>
    <style>
      .cls-1 {
        fill: #fff;
      }

      .cls-2 {
        fill: none;
        stroke: #ccc;
        stroke-linecap: round;
        stroke-miterlimit: 10;
        stroke-width: 2px;
      }

      .cls-3 {
        fill: #ccc;
      }
    </style>
  </defs>
  <g>
    <rect class="cls-1" x="1" y="1" width="28" height="28" rx="4" ry="4"/>
    <path class="cls-3" d="m25,2c1.65,0,3,1.35,3,3v20c0,1.65-1.35,3-3,3H5c-1.65,0-3-1.35-3-3V5c0-1.65,1.35-3,3-3h20m0-2H5C2.24,0,0,2.24,0,5v20c0,2.76,2.24,5,5,5h20c2.76,0,5-2.24,5-5V5c0-2.76-2.24-5-5-5h0Z"/>
  </g>
  <g>
    <circle class="cls-3" cx="14.88" cy="22.53" r="2.13"/>
    <path class="cls-2" d="m10.36,18.02c2.49-2.5,6.53-2.5,9.03-.02,0,0,.01.01.02.02"/>
    <path class="cls-2" d="m7.35,15.01c4.15-4.15,10.89-4.15,15.04,0"/>
    <path class="cls-2" d="m4.34,12c5.82-5.82,15.25-5.82,21.07,0,0,0,0,0,0,0"/>
  </g>
</svg>