<?xml version="1.0" encoding="UTF-8"?>
<svg id="_レイヤー_1" data-name="レイヤー 1" xmlns="http://www.w3.org/2000/svg" viewBox="0 0 30 30">
  <defs>
    <style>
      .cls-1 {
        fill: #fff;
      }

      .cls-2 {
        fill: #0000be;
      }
    </style>
  </defs>
  <g>
    <rect class="cls-1" x="1" y="1" width="28" height="28" rx="4" ry="4"/>
    <path class="cls-2" d="m25,2c1.65,0,3,1.35,3,3v20c0,1.65-1.35,3-3,3H5c-1.65,0-3-1.35-3-3V5c0-1.65,1.35-3,3-3h20m0-2H5C2.24,0,0,2.24,0,5v20c0,2.76,2.24,5,5,5h20c2.76,0,5-2.24,5-5V5c0-2.76-2.24-5-5-5h0Z"/>
  </g>
  <g>
    <path class="cls-2" d="m26.38,22.13s.01-.08.01-.12h0s0,0,0,0H3.61c0,.76,1.28,1.45,3.34,1.95,2.06.5,4.91.48,8.06.48s6,.02,8.06-.48c1.81-.44,3.01-1.02,3.28-1.67.02-.05.03-.09.04-.14,0,0,0,0,0-.01Z"/>
    <path class="cls-2" d="m5.34,13.48c.15,2.4,1.31,4.78,3.04,6.2,0,.71,2.38,1.29,5.3,1.29s5.3-.58,5.3-1.29c.89-.73,1.63-1.72,2.16-2.84,1.09-.17,2.12-.64,2.94-1.39,1.46-1.34,2.3-3.24,2.3-5.22v-.32c0-.61-.5-1.11-1.11-1.11h-2.96s.11-1.68.11-1.68v-.1s0,0,0,0h0s-16.44,0-16.44,0h-1.06s0,0,0,0h0l.41,6.48Zm18.76-2.28s.03.1.03.15c0,.02,0,.04,0,.06,0,.03,0,.05-.01.08-.26.97-.8,1.86-1.58,2.52-.15.13-.31.23-.47.33-.05.03-.1.06-.15.08.05-.31.09-.62.11-.93l.16-2.58h1.48c.18,0,.33.1.41.25,0,.02.02.03.02.05Z"/>
  </g>
</svg>