<?xml version="1.0" encoding="UTF-8"?>
<svg id="_レイヤー_1" data-name="レイヤー 1" xmlns="http://www.w3.org/2000/svg" viewBox="0 0 30 30">
  <defs>
    <style>
      .cls-1 {
        fill: #fff;
      }

      .cls-2 {
        fill: #0000be;
      }

      .cls-3 {
        stroke-linejoin: round;
      }

      .cls-3, .cls-4 {
        fill: none;
        stroke: #0000be;
        stroke-linecap: round;
        stroke-width: 1.6px;
      }

      .cls-4 {
        stroke-miterlimit: 10;
      }
    </style>
  </defs>
  <g>
    <rect class="cls-1" x="1" y="1" width="28" height="28" rx="4" ry="4"/>
    <path class="cls-2" d="m25,2c1.65,0,3,1.35,3,3v20c0,1.65-1.35,3-3,3H5c-1.65,0-3-1.35-3-3V5c0-1.65,1.35-3,3-3h20m0-2H5C2.24,0,0,2.24,0,5v20c0,2.76,2.24,5,5,5h20c2.76,0,5-2.24,5-5V5c0-2.76-2.24-5-5-5h0Z"/>
  </g>
  <polyline class="cls-3" points="5.28 10.12 15 4.78 24.72 10.61"/>
  <line class="cls-4" x1="7.28" y1="22.22" x2="22.72" y2="22.22"/>
  <line class="cls-4" x1="5.28" y1="25.22" x2="24.72" y2="25.22"/>
  <line class="cls-4" x1="7.22" y1="12.99" x2="7.22" y2="19.31"/>
  <line class="cls-4" x1="11.11" y1="12.99" x2="11.11" y2="19.31"/>
  <line class="cls-4" x1="18.89" y1="12.99" x2="18.89" y2="19.31"/>
  <line class="cls-4" x1="22.78" y1="12.99" x2="22.78" y2="19.31"/>
  <circle class="cls-2" cx="15" cy="9.4" r="1.6"/>
</svg>