<?xml version="1.0" encoding="UTF-8"?>
<svg id="_レイヤー_1" data-name="レイヤー 1" xmlns="http://www.w3.org/2000/svg" viewBox="0 0 30 30">
  <defs>
    <style>
      .cls-1, .cls-2 {
        fill: #fff;
      }

      .cls-2 {
        stroke: #ccc;
        stroke-linecap: round;
        stroke-miterlimit: 10;
        stroke-width: 1.5px;
      }

      .cls-3 {
        fill: #ccc;
      }
    </style>
  </defs>
  <g>
    <rect class="cls-1" x="1.17" y="1.12" width="28" height="28" rx="4" ry="4"/>
    <path class="cls-3" d="m25.17,2.12c1.65,0,3,1.35,3,3v20c0,1.65-1.35,3-3,3H5.17c-1.65,0-3-1.35-3-3V5.12c0-1.65,1.35-3,3-3h20m0-2H5.17C2.41.12.17,2.36.17,5.12v20c0,2.76,2.24,5,5,5h20c2.76,0,5-2.24,5-5V5.12c0-2.76-2.24-5-5-5h0Z"/>
  </g>
  <g>
    <path class="cls-3" d="m21.46,13.17c1.18,0,2.08-.9,2.08-2.08s-.9-2.08-2.08-2.08c-1.18,0-2.08.9-2.08,2.08,0,1.18.9,2.08,2.08,2.08Z"/>
    <path class="cls-3" d="m24.36,15.98c.15-.3,1.72-3.99,1.73-4.01.45-.9.43-1.35.15-1.66-.18-.2-.39-.4-.6-.45-.6-.15-1.23-.2-1.96-.3-1.06-.15-2.37-.03-2.56.75-.15.6,1.88.54,2.41.6,1.05.12,1.45.26,1.51.3-.84,1.38-.88,1.87-2.01,2.21-.06.02-2.97.25-3.03.23-.79.03-2.1-.02-2.5,2.38-.3,2.75-.34,3.17-.34,4.89,0,.49.48.83.73.83s.49,0,.49-.49.33-3.27.33-3.27l.15-1.06c.05.49-.12,2.35-.12,2.4-.08,3.22-.3,5.82-.37,8.67-.02.82.43,1.07,1.06,1.21.64.14,1.17-.48,1.25-1.07.21-1.63.77-5.78.91-6.74.14-.96.04-.24.04-.24.37,2.11.66,4.78.96,6.96.11.79.6,1.14,1.25,1.07.65-.07,1.08-.39,1.06-1.2-.06-2.82-.29-5.45-.37-8.66l-.18-3.37Z"/>
  </g>
  <line class="cls-2" x1="3.92" y1="17.37" x2="26.17" y2="17.37"/>
  <path class="cls-2" d="m5.17,12.13c2-5,3.02-6.56,5-7,3-.66,3.88,4,4.94,7"/>
  <path class="cls-2" d="m14.04,7.25s2.12-3.12,5.12-3.12c4,0,6.37,3.26,7,4"/>
</svg>