<?xml version="1.0" encoding="UTF-8"?>
<svg id="_レイヤー_1" data-name="レイヤー 1" xmlns="http://www.w3.org/2000/svg" viewBox="0 0 30 30">
  <defs>
    <style>
      .cls-1 {
        fill: #fff;
      }

      .cls-2 {
        fill: #ccc;
      }
    </style>
  </defs>
  <g>
    <rect class="cls-1" x="1" y="1" width="28" height="28" rx="4" ry="4"/>
    <path class="cls-2" d="m25,2c1.65,0,3,1.35,3,3v20c0,1.65-1.35,3-3,3H5c-1.65,0-3-1.35-3-3V5c0-1.65,1.35-3,3-3h20m0-2H5C2.24,0,0,2.24,0,5v20c0,2.76,2.24,5,5,5h20c2.76,0,5-2.24,5-5V5c0-2.76-2.24-5-5-5h0Z"/>
  </g>
  <g>
    <path class="cls-2" d="m14.99,21.95l-.61-2.15H4.28l-.61,2.15c-.05.2.05.42.18.42h10.95c.14,0,.24-.22.19-.42Z"/>
    <rect class="cls-2" x="4.25" y="16" width="10.16" height="2.23"/>
    <path class="cls-2" d="m4.41,23.21v2.62c0,.09.08.17.18.17h1.06c.1,0,.18-.08.18-.17v-2.62h-1.43Z"/>
    <path class="cls-2" d="m12.81,23.21v2.62c0,.09.08.17.18.17h1.06c.1,0,.18-.08.18-.17v-2.62h-1.43Z"/>
  </g>
  <path class="cls-2" d="m26.8,14.04l-3.93-9.56c-.38-.91-1.09-1.48-1.86-1.48s-1.48.57-1.86,1.48l-3.94,9.56c-.38.88-.22,2.01.38,2.64l.02.02.02.02,4.09,4.02.67.66v1.72c0,.46.25.87.59.89.36.03.66-.36.66-.85v-1.77l.67-.66,4.09-4.02.02-.02.02-.02c.59-.63.75-1.75.37-2.63Zm-5.17,3.32l1.77-2.69s.03-.08,0-.16c0-.02-.03-.05-.05-.08l.04-.06s.03-.08,0-.16c-.03-.07-.12-.21-.2-.21-.02,0-.04,0-.06.03l-.91,1.08-.6.7v-1.14l1.77-2.69s.03-.08,0-.16c0-.02-.03-.05-.05-.08l.04-.06s.03-.08,0-.16c-.03-.07-.12-.21-.2-.21-.02,0-.04,0-.06.03l-.91,1.08-.6.7v-2.63c0-.24-.07-.45-.18-.6-.1-.14-.25-.23-.41-.25-.01,0-.02,0-.04,0-.35,0-.63.42-.63.9v2.57s-1.52-1.79-1.52-1.79c-.02-.02-.04-.03-.06-.03-.08,0-.17.14-.2.21-.03.08-.01.13,0,.17l.04.06s-.04.06-.05.09c-.03.07-.01.13,0,.17l1.77,2.68v1.14s-1.52-1.79-1.52-1.79c-.02-.02-.04-.03-.06-.03-.08,0-.17.14-.2.21-.03.08-.01.13,0,.17l.04.06s-.04.06-.05.08c-.03.07-.01.13,0,.17l1.77,2.68v2.12s-4.09-4.02-4.09-4.02c-.15-.16-.19-.44-.09-.65l3.94-9.58c.17-.42.5-.69.86-.69s.69.26.86.69l3.94,9.58c.1.22.06.5-.09.65l-2.58,2.53-1.52,1.48v-2.12h0Z"/>
</svg>