<?xml version="1.0" encoding="UTF-8"?>
<svg id="_レイヤー_1" data-name="レイヤー 1" xmlns="http://www.w3.org/2000/svg" viewBox="0 0 30 30">
  <defs>
    <style>
      .cls-1 {
        fill: #fff;
      }

      .cls-2 {
        fill: #ccc;
      }
    </style>
  </defs>
  <g>
    <rect class="cls-1" x="1" y="1" width="28" height="28" rx="4" ry="4"/>
    <path class="cls-2" d="m25,2c1.65,0,3,1.35,3,3v20c0,1.65-1.35,3-3,3H5c-1.65,0-3-1.35-3-3V5c0-1.65,1.35-3,3-3h20m0-2H5C2.24,0,0,2.24,0,5v20c0,2.76,2.24,5,5,5h20c2.76,0,5-2.24,5-5V5c0-2.76-2.24-5-5-5h0Z"/>
  </g>
  <g>
    <path class="cls-2" d="m20.42,26.99c-.51,0-1-.14-1.35-.38-.35-.24-.54-.58-.52-.92.04-.66.22-3.93.29-5.78.08-2.14-.06-3.66-.46-5.09-.13-.45-.32-.79-.55-1.19-.47-.81-1.06-1.83-1.06-3.94,0-2.59,2.19-5.21,3.74-6.25.06-.04.13-.08.19-.12.35-.21.79-.32,1.26-.32.5,0,.99.14,1.34.38.35.24.54.56.53.9-.05,1.56-.27,9.51-.25,12.42.01,1.2.32,7.13.41,8.92.02.35-.18.69-.55.93-.32.22-.76.35-1.22.36l-1.74.07h-.07Zm1.53-23.21c-.18,0-.35.04-.48.12-.05.03-.09.06-.14.09-1.37.92-3.4,3.37-3.4,5.71,0,1.97.52,2.87.98,3.66.24.41.47.8.61,1.33.41,1.48.56,3.05.48,5.25-.07,2-.28,5.63-.29,5.79,0,.13.07.26.2.35.13.09.32.15.52.15l1.74-.07c.18,0,.34-.06.47-.14.14-.09.21-.22.21-.36-.09-1.79-.4-7.73-.41-8.94-.03-2.93.2-10.88.25-12.44,0-.13-.07-.25-.2-.34-.13-.09-.32-.14-.51-.14Z"/>
    <path class="cls-2" d="m10.29,26.99c-1.2,0-2.68-.67-2.8-1.53-.03-.22.06-1.25.48-5.81.21-2.27.43-4.61.46-5.19.04-.85-.11-1-.82-1.73-.14-.14-.28-.29-.43-.45-1.28-1.36-1.27-2.33-1.1-3.77.16-1.35.83-4.47.9-4.82l.15-.69h1.03s5.29,0,5.29,0l.14.68s.74,3.39.9,4.82l.03.26c.01.12.02.24.03.35.03.4.02.73-.02,1.04-.01.08-.03.15-.04.22,0,.04-.02.09-.03.13-.01.06-.03.11-.05.18-.02.05-.04.1-.06.17-.02.05-.04.11-.07.16-.02.05-.05.11-.08.16-.03.06-.06.12-.09.17-.18.3-.41.6-.71.93-.14.15-.28.29-.4.41l-.03.04c-.71.73-.85.88-.82,1.73.02.57.24,2.84.44,5.04v.12c.32,3.34.51,5.4.5,5.76v.04s0,.04,0,.04c-.03.23-.16.46-.4.68-.09.08-.19.16-.3.23l-.07.05c-.18.11-.37.21-.58.29-.06.02-.11.04-.17.06-.41.14-.84.22-1.25.22h0s-.02,0-.02,0h0ZM8.17,3.8s-.74,3.4-.91,4.78c-.17,1.42-.13,2.17.92,3.29.15.16.29.31.42.44.75.77,1.06,1.09,1.01,2.18-.03.59-.24,2.84-.46,5.22-.25,2.7-.51,5.49-.48,5.69.05.38.92.81,1.63.81.23,0,.49-.05.75-.13.04-.01.07-.02.1-.04.14-.05.27-.12.38-.19l.05-.03c.06-.04.12-.09.17-.14.11-.1.16-.2.18-.29.01-.34-.24-3.08-.49-5.72-.22-2.36-.43-4.6-.45-5.19-.05-1.09.26-1.41,1.01-2.18.13-.13.27-.28.42-.44.26-.28.46-.54.61-.8.03-.05.05-.09.08-.14.02-.05.05-.09.07-.14.02-.05.04-.09.06-.14l.05-.14s.03-.09.04-.14c0-.03.02-.06.02-.1.01-.06.03-.13.04-.19.04-.27.04-.56.02-.92,0-.11-.04-.42-.04-.42l-.02-.17c-.16-1.38-.89-4.74-.9-4.77h-.79s-.01,5.86-.01,5.86c-.01.08-.06.15-.13.19-.06.04-.15.07-.24.07-.16,0-.33-.08-.33-.24,0-.25-.04-1.55-.07-2.97l-.08-2.9h-.95s-.09,2.9-.09,2.9c-.04,1.24-.08,2.7-.08,2.97,0,.07-.04.14-.1.18-.06.04-.14.06-.23.06-.15,0-.33-.07-.36-.26V3.8s-.79,0-.79,0Z"/>
  </g>
</svg>