<?xml version="1.0" encoding="UTF-8"?>
<svg id="_レイヤー_1" data-name="レイヤー 1" xmlns="http://www.w3.org/2000/svg" viewBox="0 0 30 30">
  <defs>
    <style>
      .cls-1 {
        fill: #fff;
      }

      .cls-2 {
        fill: #0000be;
      }
    </style>
  </defs>
  <g>
    <rect class="cls-1" x="1" y="1" width="28" height="28" rx="4" ry="4"/>
    <path class="cls-2" d="m25,2c1.65,0,3,1.35,3,3v20c0,1.65-1.35,3-3,3H5c-1.65,0-3-1.35-3-3V5c0-1.65,1.35-3,3-3h20m0-2H5C2.24,0,0,2.24,0,5v20c0,2.76,2.24,5,5,5h20c2.76,0,5-2.24,5-5V5c0-2.76-2.24-5-5-5h0Z"/>
  </g>
  <path class="cls-2" d="m22.15,6.47c-.36-.6-1.01-.97-1.71-.97h-10.87c-.7,0-1.36.37-1.71.97l-2.71,4.51c-.09.16-.14.33-.14.51,0,.97.36,1.9,1,2.62v8.38c0,1.1.9,2,2,2h14c1.1,0,2-.9,2-2v-8.38c.64-.72,1-1.65,1-2.62,0-.18-.05-.36-.14-.51l-2.71-4.51Zm.84,5.28c-.13,1-.98,1.75-1.98,1.75-1.1,0-2-.9-2-2,0-.07-.02-.13-.04-.19h.02s-.76-3.81-.76-3.81h2.21l2.55,4.25Zm-9.17-4.25h2.36l.81,4.07c-.03,1.07-.91,1.93-1.99,1.93s-1.96-.86-1.99-1.93l.81-4.07Zm-4.25,0h2.21l-.76,3.8h.02c-.02.07-.04.13-.04.2,0,1.1-.9,2-2,2-1.01,0-1.86-.75-1.98-1.75l2.55-4.25Zm3.43,15v-3h4v3h-4Zm6,0v-3c0-1.1-.9-2-2-2h-4c-1.1,0-2,.9-2,2v3h-3v-7.14c.32.08.65.14,1,.14,1.15,0,2.24-.49,3-1.36.73.83,1.81,1.36,3,1.36s2.27-.52,3-1.36c.76.86,1.85,1.36,3,1.36.35,0,.68-.06,1-.14v7.14h-3Z"/>
</svg>