<?xml version="1.0" encoding="UTF-8"?>
<svg id="_レイヤー_1" data-name="レイヤー 1" xmlns="http://www.w3.org/2000/svg" viewBox="0 0 30 30">
  <defs>
    <style>
      .cls-1 {
        fill: #fff;
      }

      .cls-2 {
        fill: #0000be;
      }
    </style>
  </defs>
  <g>
    <rect class="cls-1" x="1" y="1" width="28" height="28" rx="4" ry="4"/>
    <path class="cls-2" d="m25,2c1.65,0,3,1.35,3,3v20c0,1.65-1.35,3-3,3H5c-1.65,0-3-1.35-3-3V5c0-1.65,1.35-3,3-3h20m0-2H5C2.24,0,0,2.24,0,5v20c0,2.76,2.24,5,5,5h20c2.76,0,5-2.24,5-5V5c0-2.76-2.24-5-5-5h0Z"/>
  </g>
  <g>
    <path class="cls-2" d="m12.28,6.67c-.14-.05-.29.03-.34.17-.05.14.03.29.17.34.03,0,.06.01.08.01.11,0,.22-.07.26-.19.05-.14-.03-.29-.17-.34Z"/>
    <path class="cls-2" d="m12.73,5.27c-.14-.05-.29.03-.34.17-.05.14.03.29.17.34.03,0,.06.01.08.01.11,0,.22-.07.26-.19.05-.14-.03-.29-.17-.34Z"/>
    <path class="cls-2" d="m11.37,9.47c-.14-.05-.29.03-.34.17-.05.14.03.29.17.34.03,0,.06.01.08.01.11,0,.22-.07.26-.19.05-.14-.03-.29-.17-.34Z"/>
    <path class="cls-2" d="m11.82,8.07c-.14-.05-.29.03-.34.17-.05.14.03.29.17.34.03,0,.06.01.08.01.11,0,.22-.07.26-.19.05-.14-.03-.29-.17-.34Z"/>
    <path class="cls-2" d="m14.4,5.26c-.15-.02-.28.09-.3.24-.02.15.09.28.24.3,0,0,.02,0,.03,0,.14,0,.25-.1.27-.24.02-.15-.09-.28-.24-.3Z"/>
    <path class="cls-2" d="m14.09,8.19c-.15-.02-.28.09-.3.24-.02.15.09.28.24.3,0,0,.02,0,.03,0,.14,0,.25-.1.27-.24.02-.15-.09-.28-.24-.3Z"/>
    <path class="cls-2" d="m14.24,6.72c-.15-.02-.28.09-.3.24-.02.15.09.28.24.3,0,0,.02,0,.03,0,.14,0,.25-.1.27-.24.02-.15-.09-.28-.24-.3Z"/>
    <path class="cls-2" d="m13.93,9.65c-.15-.02-.28.09-.3.24-.02.15.09.28.24.3,0,0,.02,0,.03,0,.14,0,.25-.1.27-.24.02-.15-.09-.28-.24-.3Z"/>
    <path class="cls-2" d="m16.54,9.65c-.15.02-.26.15-.24.3.01.14.13.24.27.24,0,0,.02,0,.03,0,.15-.02.26-.15.24-.3-.02-.15-.15-.26-.3-.24Z"/>
    <path class="cls-2" d="m16.44,8.72c.15-.02.26-.15.24-.3-.02-.15-.15-.26-.3-.24-.15.02-.26.15-.24.3.01.14.13.24.27.24,0,0,.02,0,.03,0Z"/>
    <path class="cls-2" d="m16.13,5.8c.15-.02.26-.15.24-.3-.02-.15-.15-.26-.3-.24-.15.02-.25.15-.24.3.02.14.13.24.27.24,0,0,.02,0,.03,0Z"/>
    <path class="cls-2" d="m16.28,7.26c.15-.02.26-.15.24-.3-.02-.15-.15-.26-.3-.24-.15.02-.26.15-.24.3.01.14.13.24.27.24,0,0,.02,0,.03,0Z"/>
    <path class="cls-2" d="m18.99,8.25c-.05-.14-.2-.22-.34-.17-.14.05-.22.2-.17.34.04.11.14.19.26.19.03,0,.06,0,.08-.01.14-.05.22-.2.17-.34Z"/>
    <path class="cls-2" d="m19.44,9.65c-.05-.14-.2-.22-.34-.17-.14.05-.22.2-.17.34.04.11.14.19.26.19.03,0,.06,0,.08-.01.14-.05.22-.2.17-.34Z"/>
    <path class="cls-2" d="m18.08,5.45c-.05-.14-.2-.22-.34-.17-.14.05-.22.2-.17.34.04.11.14.19.26.19.03,0,.06,0,.08-.01.14-.05.22-.2.17-.34Z"/>
    <path class="cls-2" d="m18.53,6.85c-.05-.14-.2-.22-.34-.17-.14.05-.22.2-.17.34.04.11.14.19.26.19.03,0,.06,0,.08-.01.14-.05.22-.2.17-.34Z"/>
    <path class="cls-2" d="m14.86,1v.48h-.34v1.02c0,.15-.11.29-.26.32-.96.2-1.58.68-1.58,1.22,0,.11.09.21.21.21h4.68c.12,0,.21-.09.21-.21,0-.58-.71-1.08-1.77-1.25-.16-.03-.27-.16-.27-.32v-.98h-.34v-.48"/>
  </g>
  <g>
    <path class="cls-2" d="m14.96,14.72c.94,0,1.69-.76,1.69-1.69s-.76-1.69-1.69-1.69-1.69.76-1.69,1.69.76,1.69,1.69,1.69Z"/>
    <path class="cls-2" d="m19.81,13.7c-.07-.15-.19-.26-.32-.34l-1.64-1.99c-.32-.19-.74-.08-.93.24-.18.3-.09.69.19.9l1.04,1.38-1.76,1.1s-2.85,0-2.88,0l-1.76-1.1,1.04-1.38c.28-.2.37-.59.19-.9-.19-.32-.61-.43-.93-.24l-1.64,1.99c-.13.08-.25.19-.32.34-.21.41-.04.91.37,1.12l.06.03,1.98,1.88s.11,2.98.11,3.01l-.32,6.89c-.01.5.36.93.87.97.52.04.98-.34,1.02-.86l.77-5.73h0l.77,5.73c.04.52.5.91,1.02.86.5-.04.88-.47.87-.97l-.32-6.89s.11-3.01.11-3.01l1.98-1.88.06-.03c.41-.21.58-.71.37-1.12Z"/>
  </g>
</svg>