<?xml version="1.0" encoding="UTF-8"?>
<svg id="_レイヤー_1" data-name="レイヤー 1" xmlns="http://www.w3.org/2000/svg" viewBox="0 0 30 30">
  <defs>
    <style>
      .cls-1 {
        fill: #fff;
      }

      .cls-2 {
        fill: #0000be;
      }
    </style>
  </defs>
  <g>
    <rect class="cls-1" x="1" y="1" width="28" height="28" rx="4" ry="4"/>
    <path class="cls-2" d="m25,2c1.65,0,3,1.35,3,3v20c0,1.65-1.35,3-3,3H5c-1.65,0-3-1.35-3-3V5c0-1.65,1.35-3,3-3h20m0-2H5C2.24,0,0,2.24,0,5v20c0,2.76,2.24,5,5,5h20c2.76,0,5-2.24,5-5V5c0-2.76-2.24-5-5-5h0Z"/>
  </g>
  <g>
    <path class="cls-2" d="m26.22,16.34c-.16-.46-.6-.99-.93-1.3-.77-.75-1.6-1.12-2.01-1.34-.3-.18-.69-.07-.86.25-.17.32-.06.7.23.9,1.92,1.31,2.24,2.88.85,4.52-.42.49-.97.88-1.78,1.33-1.33.75-4.08,1.4-6.72,1.4-2.64,0-5.39-.65-6.72-1.4-.81-.46-1.37-.84-1.78-1.33-1.39-1.64-1.07-3.21.85-4.52.29-.2.41-.59.23-.9-.17-.32-.56-.43-.86-.25-.41.22-1.24.59-2.01,1.34-.33.32-.77.84-.93,1.3-.16.46-.25.96-.25,1.48s.1,1.07.29,1.56c.32.86.89,1.61,1.59,2.24,1.07.96,2.47,1.69,4.11,2.21,1.63.51,3.5.8,5.49.8s3.85-.29,5.49-.8c1.63-.52,3.04-1.25,4.11-2.21.71-.64,1.27-1.38,1.59-2.24.18-.49.29-1.02.29-1.56,0-.52-.09-1.02-.25-1.48Z"/>
    <path class="cls-2" d="m16.62,13.48c.03-.41.01-.86-.09-1.32-.09-.46-.28-.93-.46-1.32-.18-.4-.31-.72-.38-1.04-.08-.32-.11-.64-.11-.96,0-.66.08-1.25.19-1.71.11-.46.27-.85.34-1.18.07-.32.03-.55-.16-.64-.19-.09-.44-.02-.75.18-.3.21-.71.59-1.02,1.18-.32.59-.5,1.31-.56,2.12-.03.41-.01.86.09,1.32.09.46.28.93.46,1.32.18.4.31.72.38,1.04.08.32.11.64.11.96,0,.66-.08,1.25-.19,1.71-.11.46-.27.85-.34,1.18-.07.32-.03.55.16.64.19.09.44.02.75-.18.3-.21.7-.59,1.02-1.18.32-.59.5-1.31.56-2.12Z"/>
    <path class="cls-2" d="m12.22,13.21c.02-.38,0-.79-.11-1.22-.11-.43-.31-.85-.48-1.19-.18-.35-.31-.62-.39-.89-.08-.27-.11-.54-.12-.82,0-.57.06-1.08.16-1.47.1-.4.25-.74.32-1.03.07-.29.03-.51-.16-.61s-.42-.06-.72.11c-.29.17-.69.49-1.01,1.03-.16.26-.29.57-.38.89-.09.33-.15.67-.18,1.05-.02.38,0,.8.11,1.22.11.43.31.84.48,1.19.18.35.31.62.39.89.08.27.11.54.12.82,0,.57-.06,1.08-.16,1.47-.1.4-.25.74-.32,1.03-.07.29-.03.51.16.61s.42.06.72-.11c.29-.17.69-.49,1.01-1.03.16-.26.29-.57.38-.89.09-.33.15-.67.18-1.05Z"/>
    <path class="cls-2" d="m21.16,13.21c.02-.38,0-.8-.11-1.22-.11-.43-.31-.85-.48-1.19-.18-.35-.31-.62-.39-.89-.08-.27-.11-.54-.12-.82,0-.57.06-1.08.16-1.47.1-.4.25-.74.32-1.03.07-.29.03-.51-.15-.61-.19-.1-.42-.06-.72.11-.29.17-.69.5-1.01,1.03-.16.26-.29.57-.38.89-.09.33-.15.67-.17,1.05-.02.38,0,.8.11,1.22.11.43.31.84.48,1.19.18.35.31.62.38.89.08.27.11.54.12.82,0,.57-.06,1.08-.16,1.47-.1.4-.25.74-.32,1.03-.07.29-.03.51.16.61.18.1.42.06.72-.11.29-.17.69-.49,1.01-1.03.16-.26.29-.57.38-.89.09-.33.15-.67.18-1.05Z"/>
  </g>
</svg>