<?xml version="1.0" encoding="utf-8"?>
<!-- Generator: Adobe Illustrator 27.6.1, SVG Export Plug-In . SVG Version: 6.00 Build 0)  -->
<svg version="1.1" id="_レイヤー_2" xmlns="http://www.w3.org/2000/svg" xmlns:xlink="http://www.w3.org/1999/xlink" x="0px"
	 y="0px" viewBox="0 0 112.4 123" style="enable-background:new 0 0 112.4 123;" xml:space="preserve">
<style type="text/css">
	.st0{fill:#B3B3B3;stroke:#B3B3B3;stroke-linecap:round;stroke-linejoin:round;}
	.st1{fill:#FFFFFF;stroke:#FFFFFF;stroke-linecap:round;stroke-linejoin:round;}
</style>
<g id="_レイヤー_1-2">
	<path class="st0" d="M46.8,122.5c0.2-0.2,0.5-0.1,0.5-0.5c0-0.2-0.3-0.2-0.5-0.2c-0.3,0-0.6-0.1-0.9-0.1c-13.7,0-27.4,0-41.1,0.1
		c-0.6,0-1.2-0.2-1.7-0.7c-1-1.1-0.8-2,0.7-2.4c0.6-0.2,1.2-0.4,1.8-0.4c1.2,0,1.5-0.4,1.1-1.5c-0.6-1.8,0-3.7,0-5.6
		C6.9,101.2,6.3,91.1,6.6,81c0.1-2.5,0.6-4.8,2-6.9c1.4-2.2,3.4-3.3,6.1-3.3c4.2,0,8.3-0.1,12.5,0.1c3.5,0.2,7.1,0.2,10.6,0.2
		c0.8,0,1.2,0,1.1-0.9c-0.1-0.7,0.1-1.4,0.5-2c0.8-1.3,1.7-2.6,2.6-3.8c0.6-0.8,0.6-1.2-0.3-1.9c-4.3-3.2-7.8-7.2-10-12.1
		c-2.7-6.1-3.7-12.5-2.9-19.2c0.6-4.7,1.8-9.2,3.9-13.4c3.4-7,9.2-11.2,16.4-13.6c1.8-0.6,3.6-1,5.5-1.3c0.2,0,0.8-0.2,1.1-0.2
		c0.7-0.1,1.2-0.1,1.4-0.1H64c1.9,0,3,0.5,3.9,0.7c11.5,2.2,19.2,8.6,23,19.8c1.6,4.8,2.7,9.6,2.4,14.6C92.8,47.6,89,56,80.3,62
		c-1.1,0.8-2.3,1.4-3.7,1.6c-0.1,0-0.2,0-0.2,0c-0.7,0-1.7,0.2-2-0.5c-0.4-0.8,0.2-1.6,0.9-2.1c1.5-1.1,3-2.1,4.5-3.1
		c5.6-3.7,8.8-9,10-15.5c1.8-9.5-0.4-18.1-5.6-26.1c-3.2-4.9-8-7.6-13.5-9.2c-7.5-2.2-14.9-2.2-22.2,0.6
		c-7.8,2.9-12.7,8.6-15.2,16.4c-1.2,3.8-2.1,7.7-2,11.7c0.3,10.3,4.1,18.7,12.9,24.5c0.4,0.3,0.8,0.6,1.2,0.9
		c0.8,0.7,1.1,1.5,0.7,2.5c-0.9,2.4-2.5,4.4-4,6.4c-0.2,0.3-0.5,0.6-0.7,0.8c0.2,0.4,0.6,0.3,0.9,0.3c6.3,0,12.6,0.3,18.9,0.3
		c2.3,0,4.7,0.2,7,0.3c3.5,0.2,5.9,2.3,7.2,6.3c1.2,3.7,1.1,7.5,0.8,11.2c-0.3,4.9-0.5,9.9-0.3,14.8c0.1,1.6-0.1,3.2-0.3,4.8
		c-0.3,2-0.1,4.1,0,6.1c0,0.6,0,1.2,0,1.8c-0.2,2.2-0.2,2.1,1.9,2.2c3.2,0.1,6.3,0.3,9.5,0.3c4.9-0.1,9.9,0.2,14.8-0.2
		c2.9-0.2,5.7-0.3,8.6,0.1c1.7,0.3,1.9,0.7,1.2,2.3c-0.2,0.3-0.3,0.6-0.2,0.9L46.8,122.5L46.8,122.5z M9.5,88.8
		c-0.2,6.9,0.2,13.9,0.5,20.8c0.1,3.2,0.2,3.2,3.4,3.4c0.2,0,0.5,0,0.8,0c6.6,0,13.1,0,19.7-0.2c5.6-0.2,11.2,0.4,16.7,0.2
		c1.4,0,2.8-0.1,4.1,0.1c5.6,0.7,11.1,0.2,16.7,0c0.5,0,0.8-0.1,0.8-0.8c0-1.9,0.1-3.9,0.2-5.9c0.3-7.8,1.1-15.5,1-23.3
		c0-1.5-0.3-2.9-0.8-4.2c-1.3-3.3-2.8-4.3-6.3-4.3c-8.5,0-17,0-25.5-0.2C32,74.1,23.3,73.8,14.5,74c-1.4,0-2.5,0.6-3.3,1.7
		c-0.9,1.3-1.5,2.8-1.7,4.4C9.2,82.9,9.7,85.8,9.5,88.8L9.5,88.8z M25.5,116C25.5,116,25.5,116,25.5,116c-4.6-0.1-9.2,0-13.7-0.1
		c-1.1,0-1.5,0.2-1.5,1.4c0,1.1,0.3,1.6,1.4,1.6c0.5,0,1.1,0.1,1.6,0.1c14.3,0.2,28.6-0.3,43,0c4.9,0.1,9.8,0,14.8,0.1
		c0.6,0,1.2,0.1,1-0.8c-0.1-0.7,0.3-1.7-1-1.8c-1.7-0.1-3.3-0.3-5-0.2c-5.5,0.2-11.1-0.3-16.6,0c-3.6,0.2-7.2,0-10.9-0.2
		C34.2,115.9,29.8,116,25.5,116L25.5,116z"/>
	<path class="st0" d="M95,103c0,5.6-0.8,10.2-3.9,14.1c-0.5,0.6-1,1.1-1.6,1.6c-0.5,0.4-1,0.2-1.5,0c-0.5-0.2-0.5-0.7-0.4-1.2
		c0.1-0.8,0.4-1.5,0.8-2.2c3-4.3,3.8-9,3.4-14.2c-0.6-7.2-2.8-13.8-5.9-20.2c-1.9-4-4.8-7.5-7.5-11c-0.8-1.1-1.6-2.2-2.2-3.3
		c-0.3-0.6-0.6-1.4,0-1.8c0.6-0.5,1.2-0.1,1.8,0.3c1.3,0.9,2.4,2.1,3.3,3.4c6.1,8.1,10.4,17,12.7,26.8C94.9,97.9,94.9,100.9,95,103
		L95,103z"/>
	<path class="st0" d="M60.4,51.7c-5.4-0.2-9.8-2.5-13.5-6.2c-1.3-1.4-1.3-2.4-0.1-3.1c0.5-0.3,0.9-0.3,1.4,0
		c0.8,0.5,1.4,1.1,2.1,1.8c3.7,3.9,8.2,5.1,13.4,4.2c2.2-0.4,3.9-1.8,5.3-3.4c0.7-0.8,1.3-1.6,2.2-2.2c0.5-0.4,1.1-0.9,1.8-0.3
		c0.7,0.6,0.9,1.3,0.4,2.1c-1.2,2.2-2.9,3.8-5.1,5C65.9,50.9,63.2,51.5,60.4,51.7L60.4,51.7z"/>
	<path class="st0" d="M51,29.3c0.1,0.9-0.1,2-0.6,2.9c-0.4,0.8-1.1,1.4-2.1,1.3c-1-0.1-1.4-0.9-1.6-1.7c-0.4-1.9-0.5-3.8,0.4-5.6
		c0.3-0.6,0.7-1.4,1.5-1.3c0.8,0,1.4,0.6,1.8,1.4C51,27.2,51,28.2,51,29.3z"/>
	<path class="st0" d="M68.1,29.4c0.1-1.3,0.2-2.5,0.9-3.6c0.9-1.3,2.4-1.2,3,0.2c0.8,2,1,4.1,0,6.1c-0.4,0.8-0.9,1.4-1.9,1.4
		c-1,0-1.3-0.8-1.6-1.5C68.2,31.2,68.3,30.3,68.1,29.4L68.1,29.4z"/>
	<path class="st0" d="M47.3,96.1c0.4,2.5-1.3,3.9-3.3,5c-1.5,0.8-3.2,1.2-4.9,1.2c-1.1,0-1.8-0.7-2.6-1.4c-2.6-2.1-3.5-5-3.2-8.2
		c0.2-2.4,2.7-4.2,5.7-4.7C43.9,87.1,47.7,92,47.3,96.1L47.3,96.1z M36.3,94c0,2,0.4,3.7,2.2,4.4c1.9,0.8,3.7,0.2,5.5-0.7
		c0.3-0.2,0.4-0.5,0.5-0.8c0.5-2-0.2-3.6-1.7-4.8c-1.4-1.1-3-1.2-4.7-0.5C36.8,92.1,35.9,92.7,36.3,94L36.3,94z"/>
</g>
<g id="_レイヤー_1-2_00000148637411187519743090000012674920415549522311_">
	<path class="st1" d="M44.8,120.5c0.2-0.2,0.5-0.1,0.5-0.5c0-0.2-0.3-0.2-0.5-0.2c-0.3,0-0.6-0.1-0.9-0.1c-13.7,0-27.4,0-41.1,0.1
		c-0.6,0-1.2-0.2-1.7-0.7c-1-1.1-0.8-2,0.7-2.4c0.6-0.2,1.2-0.4,1.8-0.4c1.2,0,1.5-0.4,1.1-1.5c-0.6-1.8,0-3.7,0-5.6
		C4.9,99.2,4.3,89.1,4.6,79c0.1-2.5,0.6-4.8,2-6.9c1.4-2.2,3.4-3.3,6.1-3.3c4.2,0,8.3-0.1,12.5,0.1c3.5,0.2,7.1,0.2,10.6,0.2
		c0.8,0,1.2,0,1.1-0.9c-0.1-0.7,0.1-1.4,0.5-2c0.8-1.3,1.7-2.6,2.6-3.8c0.6-0.8,0.6-1.2-0.3-1.9c-4.3-3.2-7.8-7.2-10-12.1
		c-2.7-6.1-3.7-12.5-2.9-19.2c0.6-4.7,1.8-9.2,3.9-13.4c3.4-7,9.2-11.2,16.4-13.6c1.8-0.6,3.6-1,5.5-1.3c0.2,0,0.8-0.2,1.1-0.2
		c0.7-0.1,1.2-0.1,1.4-0.1H62c1.9,0,3,0.5,3.9,0.7c11.5,2.2,19.2,8.6,23,19.8c1.6,4.8,2.7,9.6,2.4,14.6C90.8,45.6,87,54,78.3,60
		c-1.1,0.8-2.3,1.4-3.7,1.6c-0.1,0-0.2,0-0.2,0c-0.7,0-1.7,0.2-2-0.5c-0.4-0.8,0.2-1.6,0.9-2.1c1.5-1.1,3-2.1,4.5-3.1
		c5.6-3.7,8.8-9,10-15.5c1.8-9.5-0.4-18.1-5.6-26.1c-3.2-4.9-8-7.6-13.5-9.2c-7.5-2.2-14.9-2.2-22.2,0.6
		c-7.8,2.9-12.7,8.6-15.2,16.4c-1.2,3.8-2.1,7.7-2,11.7c0.3,10.3,4.1,18.7,12.9,24.5c0.4,0.3,0.8,0.6,1.2,0.9
		c0.8,0.7,1.1,1.5,0.7,2.5c-0.9,2.4-2.5,4.4-4,6.4c-0.2,0.3-0.5,0.6-0.7,0.8c0.2,0.4,0.6,0.3,0.9,0.3c6.3,0,12.6,0.3,18.9,0.3
		c2.3,0,4.7,0.2,7,0.3c3.5,0.2,5.9,2.3,7.2,6.3c1.2,3.7,1.1,7.5,0.8,11.2c-0.3,4.9-0.5,9.9-0.3,14.8c0.1,1.6-0.1,3.2-0.3,4.8
		c-0.3,2-0.1,4.1,0,6.1c0,0.6,0,1.2,0,1.8c-0.2,2.2-0.2,2.1,1.9,2.2c3.2,0.1,6.3,0.3,9.5,0.3c4.9-0.1,9.9,0.2,14.8-0.2
		c2.9-0.2,5.7-0.3,8.6,0.1c1.7,0.3,1.9,0.7,1.2,2.3c-0.2,0.3-0.3,0.6-0.2,0.9L44.8,120.5L44.8,120.5z M7.5,86.8
		c-0.2,6.9,0.2,13.9,0.5,20.8c0.1,3.2,0.2,3.2,3.4,3.4c0.2,0,0.5,0,0.8,0c6.6,0,13.1,0,19.7-0.2c5.6-0.2,11.1,0.4,16.7,0.2
		c1.4,0,2.8-0.1,4.1,0.1c5.6,0.7,11.1,0.2,16.7,0c0.5,0,0.8-0.1,0.8-0.8c0-1.9,0.1-3.9,0.2-5.9c0.3-7.8,1.1-15.5,1-23.3
		c0-1.5-0.3-2.9-0.8-4.2c-1.3-3.3-2.8-4.3-6.3-4.3c-8.5,0-17,0-25.5-0.2C30,72.1,21.3,71.8,12.5,72c-1.4,0-2.5,0.6-3.3,1.7
		c-0.9,1.3-1.5,2.8-1.7,4.4C7.2,80.9,7.7,83.8,7.5,86.8L7.5,86.8z M23.5,114C23.5,114,23.5,114,23.5,114c-4.6-0.1-9.2,0-13.8-0.1
		c-1.1,0-1.5,0.2-1.5,1.4c0,1.1,0.3,1.6,1.4,1.6c0.5,0,1.1,0.1,1.6,0.1c14.3,0.2,28.6-0.3,43,0c4.9,0.1,9.8,0,14.8,0.1
		c0.6,0,1.2,0.1,1-0.8c-0.1-0.7,0.3-1.7-1-1.8c-1.7-0.1-3.3-0.3-5-0.2c-5.5,0.2-11.1-0.3-16.6,0c-3.6,0.2-7.2,0-10.9-0.2
		C32.2,113.9,27.8,114,23.5,114L23.5,114z"/>
	<path class="st1" d="M93,101c0,5.6-0.8,10.2-3.9,14.1c-0.5,0.6-1,1.1-1.6,1.6c-0.5,0.4-1,0.2-1.5,0c-0.5-0.2-0.5-0.7-0.4-1.2
		c0.1-0.8,0.4-1.5,0.8-2.2c3-4.3,3.8-9,3.4-14.2c-0.6-7.2-2.8-13.8-5.9-20.2c-1.9-4-4.8-7.5-7.5-11c-0.8-1.1-1.6-2.2-2.2-3.3
		c-0.3-0.6-0.6-1.4,0-1.8c0.6-0.5,1.2-0.1,1.8,0.3c1.3,0.9,2.4,2.1,3.3,3.4c6.1,8.1,10.4,17,12.7,26.8C92.9,95.9,92.9,98.9,93,101
		L93,101z"/>
	<path class="st1" d="M58.4,49.7c-5.4-0.2-9.8-2.5-13.5-6.2c-1.3-1.4-1.3-2.4-0.1-3.1c0.5-0.3,0.9-0.3,1.4,0
		c0.8,0.5,1.4,1.1,2.1,1.8c3.7,3.9,8.2,5.1,13.4,4.2c2.2-0.4,3.9-1.8,5.4-3.4c0.7-0.8,1.3-1.6,2.2-2.2c0.5-0.4,1.1-0.9,1.8-0.3
		c0.7,0.6,0.9,1.3,0.4,2.1c-1.2,2.2-2.9,3.8-5.1,5C63.9,48.9,61.2,49.5,58.4,49.7L58.4,49.7z"/>
	<path class="st1" d="M49,27.3c0.1,0.9-0.1,2-0.6,2.9c-0.4,0.8-1.1,1.4-2.1,1.3c-1-0.1-1.4-0.9-1.6-1.7c-0.4-1.9-0.5-3.8,0.4-5.6
		c0.3-0.6,0.7-1.4,1.5-1.3c0.8,0,1.4,0.6,1.8,1.4C49,25.2,49,26.2,49,27.3z"/>
	<path class="st1" d="M66.1,27.4c0.1-1.3,0.2-2.5,0.9-3.6c0.9-1.3,2.4-1.2,3,0.2c0.8,2,1,4.1,0,6.1c-0.4,0.8-0.9,1.4-1.9,1.4
		c-1,0-1.3-0.8-1.6-1.5C66.2,29.2,66.3,28.2,66.1,27.4L66.1,27.4z"/>
	<path class="st1" d="M45.3,94.1c0.4,2.5-1.3,3.9-3.3,5c-1.5,0.8-3.2,1.2-4.9,1.2c-1.1,0-1.8-0.7-2.6-1.4c-2.6-2.1-3.5-5-3.2-8.2
		c0.2-2.4,2.7-4.2,5.7-4.7C41.9,85.1,45.7,90,45.3,94.1L45.3,94.1z M34.3,92c0,2,0.4,3.7,2.2,4.4c1.9,0.8,3.7,0.2,5.5-0.7
		c0.3-0.2,0.4-0.5,0.5-0.8c0.5-2-0.2-3.6-1.7-4.8c-1.4-1.1-3-1.2-4.7-0.5C34.8,90.1,33.9,90.7,34.3,92L34.3,92z"/>
</g>
</svg>
