<?xml version="1.0" encoding="UTF-8"?><svg id="_レイヤー_2" xmlns="http://www.w3.org/2000/svg" viewBox="0 0 110.44 121"><defs><style>.cls-1{fill:#7a2f27;stroke:#7a2f27;stroke-linecap:round;stroke-linejoin:round;}</style></defs><g id="_レイヤー_1-2"><path class="cls-1" d="m44.79,120.5c.17-.16.55-.14.51-.46-.03-.25-.32-.22-.51-.24-.29-.03-.58-.05-.87-.05-13.7.02-27.4.04-41.1.07-.62,0-1.24-.21-1.68-.66-1.05-1.08-.81-1.97.7-2.43.59-.18,1.21-.41,1.81-.4,1.2.03,1.48-.39,1.14-1.52-.55-1.84-.03-3.72-.02-5.58.09-10.07-.45-20.14-.21-30.22.06-2.5.62-4.84,2.01-6.95,1.43-2.18,3.41-3.32,6.05-3.31,4.16.01,8.33-.12,12.49.05,3.54.15,7.07.18,10.61.24.75.01,1.18-.03,1.06-.88-.09-.69.12-1.38.5-1.96.85-1.28,1.67-2.58,2.6-3.81.6-.79.6-1.2-.27-1.86-4.27-3.23-7.81-7.16-9.97-12.1-2.67-6.11-3.7-12.51-2.89-19.2.57-4.7,1.82-9.19,3.9-13.41,3.41-6.96,9.17-11.21,16.41-13.63,1.79-.6,3.62-.97,5.47-1.33.23-.05.79-.17,1.09-.22.67-.12,1.23-.15,1.42-.15h6.92c1.87,0,3.04.52,3.88.67,11.52,2.16,19.25,8.65,22.97,19.83,1.58,4.75,2.71,9.57,2.45,14.62-.51,9.96-4.25,18.4-13.01,24.42-1.11.76-2.34,1.4-3.66,1.64-.08.02-.16.02-.24.03-.72,0-1.68.24-2.03-.52-.39-.84.21-1.64.9-2.14,1.48-1.07,3.01-2.08,4.54-3.08,5.64-3.66,8.81-8.96,10.01-15.45,1.75-9.45-.39-18.14-5.56-26.12-3.19-4.93-8.01-7.62-13.49-9.25-7.46-2.21-14.9-2.22-22.24.55-7.79,2.93-12.7,8.56-15.18,16.42-1.21,3.81-2.11,7.7-2,11.72.28,10.26,4.09,18.7,12.88,24.5.42.28.82.57,1.22.88.85.67,1.09,1.47.68,2.53-.93,2.41-2.53,4.38-4.05,6.41-.22.29-.48.56-.7.82.25.44.62.28.92.28,6.29.03,12.57.32,18.86.3,2.32,0,4.66.17,6.98.27,3.48.15,5.89,2.35,7.2,6.26,1.24,3.68,1.09,7.46.85,11.23-.31,4.94-.54,9.89-.3,14.84.08,1.62-.09,3.24-.32,4.84-.3,2.03-.05,4.09,0,6.14.01.58,0,1.17-.04,1.75-.17,2.16-.17,2.11,1.94,2.15,3.16.06,6.33.34,9.49.28,4.95-.09,9.9.16,14.84-.18,2.86-.2,5.74-.35,8.6.09,1.73.27,1.91.71,1.15,2.33-.15.31-.27.6-.22.95H44.79ZM7.48,86.74c-.2,6.95.23,13.89.5,20.84.13,3.23.15,3.23,3.41,3.41.25.01.5.01.75.01,6.57,0,13.14,0,19.71-.2,5.57-.17,11.15.39,16.73.22,1.37-.04,2.76-.11,4.12.05,5.57.67,11.14.15,16.7-.04.5-.02.79-.05.78-.76-.03-1.95.09-3.91.16-5.86.27-7.77,1.11-15.52.98-23.32-.03-1.48-.28-2.88-.8-4.25-1.26-3.31-2.79-4.31-6.31-4.31-8.49,0-16.98-.04-25.47-.23-8.74-.19-17.48-.5-26.22-.34-1.41.03-2.51.57-3.31,1.67-.94,1.29-1.48,2.76-1.68,4.36-.36,2.91.12,5.82-.04,8.73Zm15.99,27.26s0-.03,0-.05c-4.58,0-9.17.03-13.75-.02-1.08-.01-1.5.19-1.49,1.4.01,1.11.34,1.58,1.42,1.59.54,0,1.08.07,1.62.08,14.32.23,28.65-.3,42.97-.01,4.91.1,9.83.04,14.75.05.56,0,1.17.08,1.02-.79-.12-.69.34-1.71-.97-1.77-1.66-.07-3.32-.3-4.99-.25-5.53.17-11.06-.31-16.61-.04-3.61.18-7.24,0-10.86-.15-4.37-.17-8.75-.04-13.12-.04Z"/><path class="cls-1" d="m93.04,100.97c.02,5.58-.79,10.18-3.88,14.11-.47.59-1,1.11-1.58,1.6-.52.43-1.03.24-1.5,0-.46-.24-.5-.74-.43-1.21.13-.79.38-1.52.84-2.19,3-4.29,3.81-9.02,3.37-14.2-.61-7.16-2.81-13.79-5.87-20.18-1.94-4.04-4.85-7.46-7.5-11.03-.79-1.07-1.58-2.15-2.16-3.35-.29-.6-.62-1.36-.04-1.84.55-.46,1.24-.13,1.83.28,1.33.91,2.38,2.08,3.33,3.35,6.08,8.05,10.4,16.95,12.74,26.77.67,2.83.69,5.76.84,7.91Z"/><path class="cls-1" d="m58.41,49.65c-5.42-.17-9.82-2.46-13.49-6.23-1.35-1.39-1.3-2.39-.13-3.1.47-.29.89-.32,1.39-.04.81.47,1.44,1.12,2.08,1.78,3.7,3.86,8.23,5.12,13.42,4.2,2.25-.4,3.88-1.8,5.35-3.44.69-.77,1.33-1.61,2.17-2.24.53-.4,1.08-.86,1.77-.26.68.59.87,1.27.44,2.11-1.15,2.22-2.93,3.82-5.07,5.03-2.47,1.39-5.16,2.01-7.91,2.2Z"/><path class="cls-1" d="m49.02,27.28c.1.93-.09,1.95-.56,2.89-.41.82-1.06,1.43-2.08,1.29-.97-.13-1.39-.87-1.57-1.72-.39-1.9-.5-3.8.41-5.6.32-.63.71-1.35,1.52-1.31.84.04,1.43.64,1.78,1.4.43.92.52,1.92.5,3.05Z"/><path class="cls-1" d="m66.11,27.39c.14-1.28.19-2.53.94-3.59.92-1.3,2.4-1.23,3.01.24.83,2.01.96,4.08-.01,6.11-.37.78-.89,1.38-1.89,1.35-1.01-.03-1.29-.77-1.61-1.48-.38-.85-.29-1.78-.43-2.63Z"/><path class="cls-1" d="m45.27,94.04c.4,2.51-1.27,3.91-3.27,5.04-1.51.85-3.18,1.17-4.91,1.19-1.1.01-1.81-.73-2.57-1.36-2.61-2.14-3.5-4.99-3.18-8.22.24-2.44,2.66-4.18,5.72-4.72,4.83-.84,8.68,4.02,8.21,8.06Zm-10.98-2.04c-.05,2.01.36,3.65,2.18,4.43,1.91.81,3.73.25,5.45-.71.33-.18.37-.52.45-.85.47-1.96-.24-3.59-1.7-4.76-1.36-1.08-3.04-1.2-4.69-.54-1.17.47-2.06,1.15-1.69,2.42Z"/></g></svg>