<?xml version="1.0" encoding="utf-8"?>
<!-- Generator: Adobe Illustrator 27.6.1, SVG Export Plug-In . SVG Version: 6.00 Build 0)  -->
<svg version="1.1" id="_レイヤー_2" xmlns="http://www.w3.org/2000/svg" xmlns:xlink="http://www.w3.org/1999/xlink" x="0px"
	 y="0px" viewBox="0 0 111.8 122.5" style="enable-background:new 0 0 111.8 122.5;" xml:space="preserve">
<style type="text/css">
	.st0{fill:#B3B3B3;stroke:#B3B3B3;stroke-miterlimit:10;}
	.st1{fill:#FFFFFF;stroke:#FFFFFF;stroke-miterlimit:10;}
</style>
<g id="_レイヤー_1-2">
	<path class="st0" d="M55.7,2.8c3.4,0.6,6.6,2,9.7,3.3c3.5,1.5,6.8,3.3,10.1,5.2c5.1,2.9,8.4,7.3,11,12.4c4.5,9.1,8.3,18.5,11.7,28
		c0.9,2.5,0.6,4.8-1,7c-2.4,3.2-5.4,5.6-8.6,8c-0.5,0.4-1.1,0.8-1.7,0.4c-0.6-0.4-0.5-1.1-0.4-1.7c0-0.8,0.5-1.3,1-1.8
		c2-1.8,4-3.7,5.9-5.6c1.7-1.7,2.5-3.6,1.6-6.1C91.4,41.6,87.6,31.5,82.3,22c-2.1-3.7-5.2-6.2-8.7-8.3C68,10.4,62.2,7.8,56.1,5.9
		C52.3,4.7,48.6,5,44.9,6.1c-7.3,2.1-14.3,5.2-20.6,9.4c-3.4,2.3-5.7,5.4-7.6,8.9c-5,8.9-8.3,18.4-11.1,28.2c-0.5,1.6,0.2,2.8,1.1,4
		c2.6,3.3,5.8,6,9,8.7c1.8,1.5,3.6,2.9,5.3,4.5c-0.5-1.8-1.3-3.4-1.7-5.2c-0.5-1.8-1-3.6-0.9-5.5c0-0.3,0.1-0.8-0.2-0.9
		c-2.2-0.7-2-2.8-2.4-4.3c-0.8-3-1.2-6.2-1.2-9.3c-0.1-4.2,0.5-8.3,2.3-12.1c0.3-0.7,0.7-1.5,1.7-1.2c1,0.3,1.6,1,1.4,2.2
		c-0.1,0.4-0.2,0.7-0.3,1.1c-2.5,5.5-2.4,11.2-1.1,17c0.2,0.9,0.5,1.8,0.3,2.7c-0.1,0.7,0.1,0.7,0.7,0.5c5.6-2.9,11.3-5.5,17-8.1
		c5.1-2.4,10.3-4.3,16.1-4c3.2,0.2,6.1,1.2,9,2.3c5.9,2.2,11.8,4.6,17.3,7.7c1.3,0.7,2.5,1.6,3.6,2.5c0.7,0.6,1.1,0.3,1.2-0.4
		c0.5-2.5,1.1-5,0.9-7.6c-0.2-3.3,0-6.7-0.8-10c-0.2-1,0.4-1.4,1.3-1.7c0.9-0.3,1.4,0.2,1.8,0.9c0.5,1,0.4,2.2,0.5,3.3
		c0.6,4.7,0.2,9.4-0.3,14c0,0.3-0.1,0.7-0.1,1c-0.1,1.6-0.7,2.8-2.3,3.4c-0.8,0.3-1,0.7-1,1.5c0,2-0.3,4-0.8,5.9
		c-0.3,1.2-0.2,1.6,1.1,1.9c5.5,1.4,9.9,4.5,12.9,9.2c2.7,4.2,6.3,6.3,11.1,7.2c4.1,0.7,4.7,2.6,1.8,5.6c-3.9,4.1-8.8,5.8-14.4,5.6
		c-2-0.1-4-0.4-6.2-1.2c1.1,1.9,2.2,3.5,3.1,5.2c2.8,5.6,4.9,11.5,6.1,17.7c0.3,1.8,0.1,3.6-0.2,5.5h-2c-0.8-2.8-1.2-5.7-1.8-8.6
		c-1.3-6.4-3.6-12.3-7.7-17.5c-0.8-1.1-1.7-2.2-2.8-3c-0.6-0.5-0.7-0.3-0.8,0.4c-0.8,4.2-0.5,8.4-0.7,12.7c-0.2,4.3-0.3,8.7,0.7,13
		c0.3,1.3-0.1,1.7-1.3,1.8c-1.9,0.1-2.1,0-2.1-1.5c-0.1-5.5-0.4-11-0.3-16.5c0.1-3.8,0.6-7.5,1.2-11.2c0.2-1.2-0.1-1.8-1-2.4
		c-1.8-1.2-3.8-1.9-5.6-3c-0.7-0.4-0.7,0.2-0.8,0.6c-1.3,4.4-1.9,8.9-2.9,13.3c-0.6,2.7-0.9,5.4-1.9,7.9c-0.7,1.8-2,2.6-3.8,2.7
		c-2.7,0.2-5.3,0.4-8,0.5c-6.1,0.1-12.1,0.5-18.2-0.2c-2.2-0.3-3.7-1.2-3.9-2.9c-0.3-3.1-1.2-6.1-1.9-9.1c-1-4.1-2.7-8-4.1-12
		c-0.3-0.8-0.8-0.7-1.2-0.4c-1.5,0.7-2.9,1.4-4.3,2.2c-1.2,0.7-1.5,1-1.8,1.6c1.7-0.3,1.8-0.2,1.9,1.5c0,0.6,0,1.2,0.1,1.7
		c0.7,4.1,1.3,8.1,1.4,12.2c0,4.4-0.4,8.7-0.2,13.1c0,0.5,0.2,1.1-0.4,1.3c-0.9,0.4-1.8-0.1-2.6-0.4c-0.5-0.2-0.4-0.8-0.3-1.3
		c0.4-2.2,0.6-4.3,0.6-6.6c0-3.4-0.2-6.8-0.3-10.2c-0.1-3.5-1-6.9-1.6-10.3c-4.7,3.7-7.6,8.7-10,13.9c-1.4,3.2-2.1,6.6-2.6,10.1
		c-0.4,2.2-1.1,4.4-1.8,6.5h-2c-0.1-1.4-0.3-2.8,0-4.3c1.2-7,3.3-13.7,6.9-19.8c4.3-7.4,10.7-12.4,18.7-15.4
		c1.4-0.5,1.4-0.6,0.4-1.7c-1.9-1.9-3.6-4-5.2-6.2c-0.2-0.3-0.4-0.7-0.9-0.6c-1.4,0.6-2.4-0.3-3.4-1c-3.7-2.7-6.8-6-10.1-9.1
		c-1.9-1.8-3.7-3.6-5.3-5.7c-1.5-2-2-4.1-1.3-6.5c0.8-2.6,1.5-5.2,2.3-7.7c2.5-7.7,5.4-15.2,9.5-22.2c1.8-3.1,3.8-6,6.8-8.1
		c7.1-4.9,14.7-8.5,23-10.8C48.7,2.1,55.3,2.7,55.7,2.8L55.7,2.8z M51.1,86.5c2.5,0.2,4.9-0.2,7.2-0.7c6.3-1.3,11.4-4.5,15.4-9.6
		c3.5-4.6,5.3-9.9,6.8-15.4c0.8-3,0.8-3-1.8-4.4c-5.1-2.9-10.2-5.8-15.7-7.9c-3.6-1.4-7.2-2.9-11.2-2.9c-5.3-0.1-10.1,1.8-14.8,3.9
		c-5.4,2.5-10.5,5.5-16,7.9c-0.4,0.2-0.5,0.3-0.4,0.8c0.9,2.7,1.7,5.4,2.6,8c1.8,5,4.3,9.6,8.3,13C37,84.1,43.5,87,51.1,86.5
		L51.1,86.5z M55.8,108c2.8,0.2,5.3-0.3,7.8-0.2c1,0,1.6-0.4,1.9-1.4c1.1-3.2,1.5-6.5,2.2-9.8c0.7-3.6,0.8-7.2,1.9-10.7
		c0.1-0.4,0.2-1-0.2-1.3c-0.5-0.3-0.9,0.1-1.2,0.3c-4.5,2.8-9.4,4.1-14.5,4.6c-7,0.7-13.5-0.8-19.5-4.6c-0.4-0.3-0.9-0.5-1.3-0.7
		c-0.6-0.3-1,0.2-1.4,0.6c-0.3,0.2-0.5,0.4-0.3,0.8c1,1.5,1.2,3.2,1.6,4.9c1.5,5.3,3.1,10.7,4.1,16.1c0.2,0.9,0.7,1.4,1.6,1.4
		c1.6,0.1,3.2,0.2,4.7,0.3C47.6,108.4,51.9,108.3,55.8,108L55.8,108z M95.6,91.8c0.8,0,1.3,0,1.8,0c3.7-0.2,7-1.4,9.4-4.3
		c0.2-0.2,0.5-0.4,0.4-0.7c-0.1-0.3-0.4-0.2-0.7-0.2c-2.5-0.3-4.8-1.3-6.8-2.7c-2.5-1.7-4.2-4.1-6.1-6.4c-2.7-3.3-5.9-6.1-10.3-7
		C81.3,70,81,70,80,72c-1.8,3.5-4.1,6.7-6.9,9.4c-0.6,0.6-0.6,0.9,0.2,1.2c3.8,1.4,7.1,3.6,10.3,6c0.3,0.2,0.7,0.7,1.1,0.5
		c1.6-0.5,2.7,0.3,4,1C90.9,91.2,93.3,92,95.6,91.8L95.6,91.8z"/>
	<path class="st0" d="M50.4,77.5c-3.1-0.3-6.2-1.6-8.2-4.7c-0.6-0.9-0.7-1.7,0.3-2.4c1-0.7,1.6-0.6,2.4,0.5c2.6,3.3,6.1,4.3,9.7,2.9
		c0.8-0.3,1.5-0.9,2.1-1.6c0.6-0.6,1.1-1.1,1.9-1.4c0.8-0.3,1.4,0.1,2,0.7c0.5,0.6,0.2,1.1-0.1,1.6c-1.4,2.2-3.6,3.2-6,3.9
		C53.3,77.3,52.1,77.5,50.4,77.5L50.4,77.5z"/>
	<path class="st0" d="M41.7,58.6c-0.1,1.5-0.4,3.1-1.7,4.2c-1.1,1-2.3,1-3.5,0c-2.3-2-2.4-7,0-9c1.2-1.1,2.9-0.9,3.9,0.4
		C41.4,55.6,41.6,57,41.7,58.6L41.7,58.6z"/>
	<path class="st0" d="M66.7,58.4c0,1.6-0.3,3.1-1.5,4.3c-1.1,1.1-2.6,1.1-3.8,0c-2.1-2-2.1-6.7,0.1-8.8c1.2-1.2,2.8-1,4,0.4
		C66.5,55.6,66.6,57,66.7,58.4z"/>
</g>
<g id="_レイヤー_1-2_00000098941563004719376970000011946413189526751158_">
	<path class="st1" d="M53.7,0.8c3.4,0.6,6.6,2,9.7,3.3c3.5,1.5,6.8,3.3,10.1,5.2c5.1,2.9,8.4,7.3,11,12.4c4.5,9.1,8.3,18.5,11.7,28
		c0.9,2.5,0.6,4.8-1,7c-2.4,3.2-5.4,5.6-8.6,8c-0.5,0.4-1.1,0.8-1.7,0.4c-0.6-0.4-0.5-1.1-0.4-1.7c0-0.8,0.5-1.3,1-1.8
		c2-1.8,4-3.7,5.9-5.6c1.7-1.7,2.5-3.6,1.6-6.1C89.4,39.6,85.6,29.5,80.3,20c-2.1-3.7-5.2-6.2-8.7-8.3C66,8.4,60.2,5.8,54.1,3.9
		C50.3,2.7,46.6,3,42.9,4.1c-7.3,2.1-14.3,5.2-20.7,9.5c-3.4,2.3-5.7,5.4-7.6,8.9c-5,8.9-8.3,18.4-11.1,28.2c-0.5,1.6,0.2,2.8,1.1,4
		c2.6,3.3,5.8,6,9,8.7c1.8,1.5,3.6,2.9,5.3,4.5c-0.5-1.8-1.3-3.4-1.7-5.2c-0.5-1.8-1-3.6-0.9-5.5c0-0.3,0.1-0.8-0.2-0.9
		c-2.2-0.7-2-2.8-2.4-4.3c-0.8-3-1.2-6.2-1.2-9.3c-0.1-4.2,0.5-8.3,2.3-12.1c0.3-0.7,0.7-1.5,1.7-1.2c1,0.3,1.6,1,1.4,2.2
		c-0.1,0.4-0.2,0.7-0.3,1.1c-2.5,5.5-2.4,11.2-1.1,17c0.2,0.9,0.5,1.8,0.3,2.7c-0.1,0.7,0.1,0.7,0.7,0.5c5.6-2.9,11.3-5.5,17-8.1
		c5.1-2.4,10.3-4.3,16.1-4c3.2,0.2,6.1,1.2,9,2.3c5.9,2.2,11.8,4.6,17.3,7.7c1.3,0.7,2.5,1.6,3.6,2.5c0.7,0.6,1.1,0.3,1.2-0.4
		c0.5-2.5,1.1-5,0.9-7.6c-0.2-3.3,0-6.7-0.8-10c-0.2-1,0.4-1.4,1.3-1.7c0.9-0.3,1.4,0.2,1.8,0.9c0.5,1,0.4,2.2,0.5,3.3
		c0.6,4.7,0.2,9.4-0.3,14c0,0.3-0.1,0.7-0.1,1c-0.1,1.6-0.7,2.8-2.3,3.4c-0.8,0.3-1,0.7-1,1.5c0,2-0.3,4-0.8,5.9
		c-0.3,1.2-0.2,1.6,1.1,1.9c5.5,1.4,9.9,4.5,12.9,9.2c2.7,4.2,6.3,6.3,11.1,7.2c4.1,0.7,4.7,2.6,1.8,5.6c-3.9,4.1-8.8,5.8-14.4,5.6
		c-2-0.1-4-0.4-6.2-1.2c1.1,1.9,2.2,3.5,3.1,5.2c2.8,5.6,4.9,11.5,6.1,17.7c0.3,1.8,0.1,3.6-0.2,5.5h-2c-0.8-2.8-1.2-5.7-1.8-8.6
		c-1.3-6.4-3.6-12.3-7.7-17.5c-0.8-1.1-1.7-2.2-2.8-3c-0.6-0.5-0.7-0.3-0.8,0.4c-0.8,4.2-0.5,8.4-0.7,12.7c-0.2,4.3-0.3,8.7,0.7,13
		c0.3,1.3-0.1,1.7-1.3,1.8c-1.9,0.1-2.1,0-2.1-1.5c-0.1-5.5-0.4-11-0.3-16.5c0.1-3.8,0.6-7.5,1.2-11.2c0.2-1.2-0.1-1.8-1-2.4
		c-1.8-1.2-3.8-1.9-5.6-3c-0.7-0.4-0.7,0.2-0.8,0.6c-1.3,4.4-1.9,8.9-2.9,13.3c-0.6,2.7-0.9,5.4-1.9,7.9c-0.7,1.8-2,2.6-3.8,2.7
		c-2.7,0.2-5.3,0.4-8,0.5c-6.1,0.1-12.1,0.5-18.2-0.2c-2.2-0.3-3.7-1.2-3.9-2.9c-0.3-3.1-1.2-6.1-1.9-9.1c-1-4.1-2.7-8-4.1-12
		c-0.3-0.8-0.8-0.7-1.2-0.4c-1.5,0.7-2.9,1.4-4.3,2.2c-1.2,0.7-1.5,1-1.8,1.6c1.7-0.3,1.8-0.2,1.9,1.5c0,0.6,0,1.2,0.1,1.7
		c0.7,4.1,1.3,8.1,1.4,12.2c0,4.4-0.4,8.7-0.2,13.1c0,0.5,0.2,1.1-0.4,1.3c-0.9,0.4-1.8-0.1-2.6-0.4c-0.5-0.2-0.4-0.8-0.3-1.3
		c0.4-2.2,0.6-4.3,0.6-6.6c0-3.4-0.2-6.8-0.3-10.2c-0.1-3.5-1-6.9-1.6-10.3c-4.7,3.7-7.6,8.7-10,13.9c-1.4,3.2-2.1,6.6-2.6,10.1
		c-0.4,2.2-1.1,4.4-1.8,6.5h-2c-0.1-1.4-0.3-2.8,0-4.3c1.2-7,3.3-13.7,6.9-19.8c4.3-7.4,10.7-12.4,18.7-15.4
		c1.4-0.5,1.4-0.6,0.4-1.7c-1.9-1.9-3.6-4-5.2-6.2c-0.2-0.3-0.4-0.7-0.9-0.6c-1.4,0.6-2.4-0.3-3.4-1c-3.7-2.7-6.8-6-10.1-9.1
		c-1.9-1.8-3.7-3.6-5.3-5.7c-1.5-2-2-4.1-1.3-6.5c0.8-2.6,1.5-5.2,2.3-7.7c2.6-7.7,5.4-15.2,9.5-22.2c1.8-3.1,3.8-6,6.8-8.1
		c7.1-4.9,14.7-8.6,23-10.8C46.7,0.1,53.3,0.7,53.7,0.8L53.7,0.8z M49.1,84.5c2.5,0.2,4.9-0.2,7.2-0.7c6.3-1.3,11.4-4.5,15.4-9.6
		c3.5-4.6,5.3-9.9,6.8-15.4c0.8-3,0.8-3-1.8-4.4c-5.1-2.9-10.2-5.8-15.7-7.9c-3.6-1.4-7.2-2.9-11.2-2.9c-5.3-0.1-10.1,1.8-14.8,3.9
		c-5.4,2.5-10.5,5.5-16,7.9c-0.4,0.2-0.5,0.3-0.4,0.8c0.9,2.7,1.7,5.4,2.6,8c1.8,5,4.3,9.6,8.3,13C35,82.1,41.5,85,49.1,84.5
		L49.1,84.5z M53.8,106c2.8,0.2,5.3-0.3,7.8-0.2c1,0,1.6-0.4,1.9-1.4c1.1-3.2,1.5-6.5,2.2-9.8c0.7-3.6,0.8-7.2,1.9-10.7
		c0.1-0.4,0.2-1-0.2-1.3c-0.5-0.3-0.9,0.1-1.2,0.3c-4.5,2.8-9.4,4.1-14.5,4.6c-7,0.7-13.5-0.8-19.5-4.6c-0.4-0.3-0.9-0.5-1.3-0.7
		c-0.6-0.3-1,0.2-1.4,0.6c-0.3,0.2-0.5,0.4-0.3,0.8c1,1.5,1.1,3.2,1.6,4.9c1.6,5.3,3.1,10.7,4.2,16.1c0.2,0.9,0.7,1.4,1.6,1.4
		c1.6,0.1,3.2,0.2,4.7,0.3C45.6,106.4,49.9,106.3,53.8,106L53.8,106z M93.6,89.8c0.8,0,1.3,0,1.8,0c3.7-0.2,7-1.4,9.4-4.3
		c0.2-0.2,0.5-0.4,0.4-0.7c-0.1-0.3-0.4-0.2-0.7-0.2c-2.5-0.3-4.8-1.3-6.8-2.7c-2.5-1.7-4.2-4.1-6.1-6.4c-2.7-3.3-5.9-6.1-10.3-7
		C79.3,68,79,68,78,70c-1.8,3.5-4.1,6.7-6.9,9.4c-0.6,0.6-0.6,0.9,0.2,1.2c3.8,1.4,7.1,3.6,10.3,6c0.3,0.2,0.7,0.7,1.1,0.5
		c1.6-0.5,2.7,0.3,4,1C88.9,89.2,91.3,90,93.6,89.8L93.6,89.8z"/>
	<path class="st1" d="M48.4,75.5c-3.1-0.3-6.2-1.6-8.2-4.7c-0.6-0.9-0.7-1.7,0.3-2.4c1-0.7,1.6-0.6,2.4,0.5c2.6,3.3,6.1,4.3,9.7,2.9
		c0.8-0.3,1.5-0.9,2.1-1.6c0.6-0.6,1.1-1.1,1.9-1.4c0.8-0.3,1.4,0.1,2,0.7c0.5,0.6,0.2,1.1-0.1,1.6c-1.4,2.2-3.6,3.2-6,3.9
		C51.3,75.3,50.1,75.5,48.4,75.5L48.4,75.5z"/>
	<path class="st1" d="M39.7,56.6c-0.1,1.5-0.4,3.1-1.7,4.2c-1.1,1-2.3,1-3.5,0c-2.3-2-2.4-7,0-9c1.2-1.1,2.9-0.9,3.9,0.4
		C39.4,53.6,39.6,55,39.7,56.6L39.7,56.6z"/>
	<path class="st1" d="M64.7,56.4c0,1.6-0.3,3.1-1.5,4.3c-1.1,1.1-2.6,1.1-3.8,0c-2.1-2-2.1-6.7,0.1-8.8c1.2-1.2,2.8-1,4,0.4
		C64.5,53.6,64.6,55,64.7,56.4z"/>
</g>
</svg>
