<?xml version="1.0" encoding="UTF-8"?><svg id="_レイヤー_2" xmlns="http://www.w3.org/2000/svg" viewBox="0 0 109.81 120.55"><defs><style>.cls-1{fill:#fff;stroke:#fff;stroke-miterlimit:10;}</style></defs><g id="_レイヤー_1-2"><path class="cls-1" d="m53.68.78c3.43.56,6.57,1.97,9.73,3.31,3.49,1.48,6.8,3.31,10.08,5.2,5.07,2.92,8.42,7.27,10.97,12.44,4.5,9.1,8.27,18.49,11.72,28.01.91,2.51.56,4.82-1.02,6.95-2.36,3.18-5.43,5.61-8.55,7.99-.49.37-1.11.75-1.71.36-.59-.38-.48-1.1-.45-1.72.04-.76.46-1.32.99-1.82,1.97-1.85,3.98-3.67,5.92-5.56,1.73-1.68,2.46-3.59,1.6-6.06-3.6-10.23-7.33-20.39-12.69-29.88-2.09-3.71-5.16-6.22-8.73-8.32-5.54-3.26-11.31-5.92-17.47-7.79-3.78-1.14-7.45-.86-11.13.2-7.35,2.12-14.28,5.18-20.65,9.45-3.39,2.27-5.68,5.41-7.64,8.91-4.99,8.9-8.3,18.44-11.15,28.18-.47,1.59.17,2.83,1.1,4,2.59,3.3,5.76,6,8.98,8.65,1.78,1.47,3.57,2.91,5.29,4.49-.46-1.78-1.28-3.41-1.74-5.16-.47-1.81-.97-3.6-.91-5.49.01-.32.12-.79-.25-.9-2.18-.69-1.99-2.8-2.42-4.35-.83-3.03-1.2-6.2-1.24-9.34-.05-4.16.52-8.26,2.26-12.12.32-.72.67-1.53,1.72-1.19,1.04.34,1.59,1.05,1.39,2.19-.06.36-.18.73-.33,1.07-2.48,5.54-2.44,11.25-1.1,17.03.2.89.48,1.76.27,2.69-.15.65.14.74.68.46,5.58-2.86,11.31-5.45,16.98-8.13,5.06-2.39,10.32-4.35,16.14-3.97,3.16.21,6.09,1.19,9,2.26,5.93,2.17,11.75,4.61,17.27,7.7,1.28.71,2.47,1.56,3.59,2.48.7.57,1.05.3,1.2-.43.52-2.51,1.06-4.98.9-7.61-.21-3.35.03-6.73-.78-10.04-.24-.97.44-1.42,1.27-1.7.91-.3,1.44.18,1.81.9.52,1.03.4,2.2.54,3.3.59,4.69.25,9.38-.33,14.05-.04.33-.08.66-.09.99-.08,1.59-.69,2.83-2.26,3.4-.75.27-1.01.73-1,1.5.03,2-.3,3.98-.8,5.9-.32,1.2-.16,1.61,1.12,1.94,5.46,1.41,9.86,4.54,12.88,9.22,2.69,4.17,6.32,6.34,11.1,7.16,4.06.7,4.66,2.62,1.84,5.63-3.87,4.12-8.79,5.82-14.38,5.64-2.01-.06-4.01-.36-6.19-1.16,1.14,1.93,2.2,3.52,3.05,5.21,2.8,5.62,4.94,11.49,6.08,17.68.33,1.81.07,3.64-.19,5.46h-2c-.75-2.83-1.18-5.73-1.75-8.6-1.27-6.4-3.63-12.32-7.66-17.51-.84-1.08-1.71-2.15-2.77-3.04-.56-.47-.69-.3-.82.36-.83,4.19-.52,8.45-.71,12.68-.19,4.35-.34,8.72.66,13.04.31,1.34-.1,1.73-1.33,1.81-1.87.11-2.08-.02-2.09-1.52-.05-5.5-.37-10.98-.29-16.49.05-3.79.6-7.52,1.15-11.25.17-1.15-.07-1.79-.97-2.38-1.78-1.18-3.78-1.93-5.63-2.96-.68-.38-.68.17-.82.64-1.29,4.36-1.93,8.87-2.95,13.29-.62,2.65-.92,5.37-1.92,7.95-.69,1.79-1.98,2.59-3.79,2.71-2.66.17-5.31.44-7.97.47-6.07.07-12.14.52-18.2-.19-2.24-.26-3.7-1.22-3.86-2.88-.3-3.11-1.24-6.07-1.94-9.09-.96-4.13-2.68-8.01-4.07-12-.28-.81-.75-.66-1.25-.41-1.46.71-2.92,1.41-4.34,2.2-1.2.67-1.52,1.02-1.83,1.59,1.66-.34,1.83-.19,1.88,1.54.02.58.04,1.15.14,1.73.67,4.05,1.34,8.1,1.38,12.23.04,4.37-.4,8.74-.25,13.11.02.46.24,1.07-.4,1.32-.94.37-1.81-.09-2.64-.43-.53-.22-.42-.81-.33-1.33.4-2.17.62-4.35.65-6.56.05-3.42-.22-6.82-.29-10.23-.07-3.52-.99-6.88-1.65-10.35-4.74,3.73-7.58,8.7-9.98,13.95-1.45,3.18-2.05,6.64-2.6,10.07-.36,2.25-1.07,4.38-1.77,6.53H.94c-.07-1.44-.27-2.85-.03-4.32,1.18-7.01,3.3-13.69,6.91-19.82,4.34-7.37,10.69-12.41,18.69-15.38,1.4-.52,1.43-.58.38-1.66-1.88-1.95-3.63-4.01-5.2-6.22-.22-.3-.44-.73-.87-.56-1.43.58-2.42-.31-3.4-1.02-3.71-2.65-6.76-6.04-10.06-9.14-1.88-1.76-3.71-3.59-5.27-5.66-1.5-1.99-1.99-4.11-1.27-6.55.76-2.57,1.49-5.16,2.34-7.7,2.55-7.65,5.43-15.16,9.48-22.16,1.78-3.08,3.76-5.99,6.75-8.06,7.06-4.88,14.68-8.55,23-10.75,4.29-.98,10.87-.32,11.28-.26Zm-4.61,83.75c2.53.19,4.88-.21,7.25-.7,6.33-1.32,11.45-4.51,15.39-9.62,3.53-4.57,5.33-9.9,6.75-15.39.77-2.96.75-2.97-1.82-4.44-5.08-2.91-10.19-5.8-15.67-7.91-3.63-1.4-7.25-2.86-11.24-2.92-5.29-.07-10.08,1.78-14.77,3.93-5.4,2.47-10.54,5.49-16,7.86-.43.18-.55.35-.39.84.9,2.67,1.69,5.37,2.62,8.02,1.75,4.98,4.31,9.58,8.28,13.03,5.57,4.84,12.05,7.77,19.58,7.31Zm4.77,21.49c2.82.18,5.3-.27,7.8-.21,1,.03,1.56-.43,1.9-1.42,1.1-3.18,1.5-6.5,2.16-9.77.72-3.55.75-7.23,1.94-10.7.14-.41.25-.96-.2-1.27-.47-.32-.88.08-1.25.31-4.46,2.79-9.38,4.1-14.55,4.6-7.01.68-13.52-.79-19.46-4.64-.42-.27-.86-.51-1.31-.71-.63-.28-1,.22-1.4.55-.27.21-.52.45-.27.84.95,1.5,1.15,3.25,1.63,4.91,1.55,5.33,3.12,10.66,4.15,16.13.17.91.69,1.36,1.61,1.41,1.58.08,3.15.23,4.73.26,4.29.08,8.57.03,12.53-.29Zm39.77-16.21c.77,0,1.27.03,1.77,0,3.7-.23,6.99-1.37,9.45-4.31.18-.21.49-.39.36-.73-.12-.3-.42-.2-.65-.22-2.53-.29-4.76-1.26-6.84-2.71-2.48-1.72-4.2-4.13-6.07-6.41-2.74-3.35-5.89-6.07-10.29-7-2.06-.44-2.34-.38-3.3,1.55-1.76,3.53-4.08,6.66-6.93,9.37-.61.58-.63.89.17,1.18,3.81,1.36,7.08,3.62,10.29,6,.33.24.67.65,1.09.51,1.55-.51,2.74.35,3.97,1,2.28,1.2,4.64,2,7,1.78Z"/><path class="cls-1" d="m48.42,75.53c-3.13-.34-6.15-1.62-8.23-4.69-.6-.89-.67-1.69.3-2.36.99-.68,1.6-.56,2.41.48,2.62,3.34,6.06,4.33,9.74,2.87.85-.34,1.45-.95,2.06-1.57.56-.56,1.12-1.12,1.88-1.41.83-.32,1.42.05,1.97.66.55.6.16,1.09-.14,1.56-1.41,2.21-3.61,3.25-6.01,3.91-1.15.32-2.35.51-3.98.54Z"/><path class="cls-1" d="m39.69,56.63c-.12,1.54-.4,3.07-1.68,4.21-1.11,1-2.32,1.01-3.47.04-2.33-1.97-2.36-6.97-.05-8.97,1.23-1.07,2.89-.9,3.93.44.96,1.23,1.18,2.7,1.26,4.28Z"/><path class="cls-1" d="m64.68,56.44c-.03,1.64-.31,3.12-1.48,4.29-1.12,1.12-2.62,1.13-3.76.03-2.12-2.05-2.08-6.72.07-8.75,1.24-1.17,2.84-1.01,4.01.4,1,1.19,1.1,2.64,1.16,4.03Z"/></g></svg>