<?xml version="1.0" encoding="UTF-8"?><svg id="_レイヤー_2" xmlns="http://www.w3.org/2000/svg" viewBox="0 0 120.28 75.6"><defs><style>.cls-1{fill:none;stroke:#fff;stroke-linecap:round;stroke-linejoin:round;stroke-width:4px;}</style></defs><g id="_レイヤー_1-2"><path class="cls-1" d="m78.86,48.77c1.6.98,2.6,2.53,3.71,3.97.88,1.14,2.17,1.94,2.74,3.33"/><path class="cls-1" d="m83.94,36.03c-1.11.29-2.23.04-3.35.08-4.79.15-9.59.13-14.38.17"/><path class="cls-1" d="m14.89,20.68c5.83.24,11.65.57,17.48.81,2.85.12,5.69.45,8.55.43"/><path class="cls-1" d="m117.91,31.33c-.99,1.56-2.58,2.49-3.99,3.56-5.33,4.07-10.58,8.25-15.86,12.39-3.43,2.69-6.87,5.38-10.43,7.9-2.4,1.71-5.15,2.71-8.16,2.89-1.74.11-3.44.62-5.21.48"/><path class="cls-1" d="m40.31,37.39c-8.55.03-17.11-.21-25.66.12"/><path class="cls-1" d="m94.23,18.7c-5.19.21-10.33.87-15.5,1.32-3,.26-6.02.52-9.05.43-.99-.03-1.98.15-2.97.23"/><path class="cls-1" d="m41.05,52.55c-.96.47-1.9-.08-2.85-.06-3.76.08-7.52-.09-11.28.1-1.98.1-3.97-.06-5.95-.1-1.61-.03-3.23.34-4.84-.11-.44-.12-.94-.04-1.36.23"/><path class="cls-1" d="m118.28,31.2c-1.31-3.07-3.63-5.41-5.71-7.91-1.03-1.24-1.8-1.32-3.09-.37-4.3,3.15-8.53,6.38-12.68,9.73-5.3,4.28-10.47,8.71-15.84,12.9-1.01.78-1.71,1.69-2.26,2.84-.5,1.05-1.45,1.85-2.09,2.85-.95,1.5-1.91,3-2.73,4.58-.38.74-.47,1.46-.47,2.24"/><path class="cls-1" d="m2.5,8.34c-.18,1.62-.18,2.62-.12,4.69,0,.24-.06-.32-.07-.07-.11,7.88-.19,14.57-.23,22.45-.02,3.79-.14,7.59-.05,11.38.1,3.84-.14,7.69.15,11.5.18,2.31.51,4.63.83,6.93.18,1.31.98,1.81,2.33,1.86,5.54.24,11.09.46,16.61.97,2.51.23,5.05.24,7.56.53,3.71.42,7.39,1.03,11.04,1.81,3.49.74,6.95,1.61,10.4,2.52.51.13,1.02.16,1.48.07.34-.07.8-.19.98-.06,1.57,1.19,3.22.52,4.72.05,4.26-1.33,8.57-2.43,12.91-3.38,2.53-.56,5.1-1.01,7.67-1.43,5.39-.88,10.8-1.18,16.24-1.22,2.44-.02,4.88-.23,7.31-.35,1.49-.07,1.85-.46,1.86-1.98.03-5.94.51-9.87.38-15.82"/><path class="cls-1" d="m54.56,9.3c-.08,4-.19,8-.24,12-.07,4.91-.07,9.82-.14,14.72-.06,4.37-.16,8.74-.24,13.12-.13,7.05-.41,14.1-.15,21.16.03.82-.3,1.65-.47,2.47"/><path class="cls-1" d="m105.02,26.01c-1.22-1.84-1.08-3.81-.96-5.94.2-3.57.6-7.16.22-10.76-.15-1.39.1-2.8-.13-4.21-.33-2-.99-2.68-2.98-2.71-2.15-.03-4.3-.13-6.45-.25-2.14-.12-4.3-.11-6.45-.14-5.66-.06-11.22.83-16.73,2-4.97,1.06-9.86,2.44-14.62,4.22-1.66.62-3,.7-4.75.04-4.92-1.84-10.01-3.21-15.1-4.52-2.23-.57-4.52-.88-6.81-1.16-2.89-.35-5.79-.5-8.68-.55-2.72-.05-5.45.22-8.18.23-3.65.02-7.25.75-10.91.72"/></g></svg>