<?xml version="1.0" encoding="utf-8"?>
<!-- Generator: Adobe Illustrator 27.6.1, SVG Export Plug-In . SVG Version: 6.00 Build 0)  -->
<svg version="1.1" id="_レイヤー_2" xmlns="http://www.w3.org/2000/svg" xmlns:xlink="http://www.w3.org/1999/xlink" x="0px"
	 y="0px" viewBox="0 0 122.3 77.6" style="enable-background:new 0 0 122.3 77.6;" xml:space="preserve">
<style type="text/css">
	.st0{fill:none;stroke:#B3B3B3;stroke-width:4;stroke-linecap:round;stroke-linejoin:round;}
	.st1{fill:none;stroke:#FFFFFF;stroke-width:4;stroke-linecap:round;stroke-linejoin:round;}
</style>
<g id="_レイヤー_1-2">
	<path class="st0" d="M80.9,50.8c1.6,1,2.6,2.5,3.7,4c0.9,1.1,2.2,1.9,2.7,3.3"/>
	<path class="st0" d="M85.9,38c-1.1,0.3-2.2,0-3.3,0.1c-4.8,0.2-9.6,0.1-14.4,0.2"/>
	<path class="st0" d="M16.9,22.7c5.8,0.2,11.7,0.6,17.5,0.8c2.8,0.1,5.7,0.5,8.5,0.4"/>
	<path class="st0" d="M119.9,33.3c-1,1.6-2.6,2.5-4,3.6c-5.3,4.1-10.6,8.2-15.9,12.4c-3.4,2.7-6.9,5.4-10.4,7.9
		c-2.4,1.7-5.2,2.7-8.2,2.9c-1.7,0.1-3.4,0.6-5.2,0.5"/>
	<path class="st0" d="M42.3,39.4c-8.5,0-17.1-0.2-25.7,0.1"/>
	<path class="st0" d="M96.2,20.7C91,20.9,85.9,21.6,80.7,22c-3,0.3-6,0.5-9.1,0.4c-1,0-2,0.1-3,0.2"/>
	<path class="st0" d="M43.1,54.6c-1,0.5-1.9-0.1-2.8-0.1c-3.8,0.1-7.5-0.1-11.3,0.1c-2,0.1-4-0.1-6-0.1c-1.6,0-3.2,0.3-4.8-0.1
		c-0.4-0.1-0.9,0-1.4,0.2"/>
	<path class="st0" d="M120.3,33.2c-1.3-3.1-3.6-5.4-5.7-7.9c-1-1.2-1.8-1.3-3.1-0.4c-4.3,3.1-8.5,6.4-12.7,9.7
		c-5.3,4.3-10.5,8.7-15.8,12.9c-1,0.8-1.7,1.7-2.3,2.8c-0.5,1-1.4,1.8-2.1,2.8c-0.9,1.5-1.9,3-2.7,4.6c-0.4,0.7-0.5,1.5-0.5,2.2"/>
	<path class="st0" d="M4.5,10.3C4.3,12,4.3,13,4.4,15c0,0.2-0.1-0.3-0.1-0.1c-0.1,7.9-0.2,14.6-0.2,22.5c0,3.8-0.1,7.6-0.1,11.4
		c0.1,3.8-0.1,7.7,0.2,11.5c0.2,2.3,0.5,4.6,0.8,6.9c0.2,1.3,1,1.8,2.3,1.9c5.5,0.2,11.1,0.5,16.6,1c2.5,0.2,5,0.2,7.6,0.5
		c3.7,0.4,7.4,1,11,1.8c3.5,0.7,7,1.6,10.4,2.5c0.5,0.1,1,0.2,1.5,0.1c0.3-0.1,0.8-0.2,1-0.1c1.6,1.2,3.2,0.5,4.7,0.1
		c4.3-1.3,8.6-2.4,12.9-3.4c2.5-0.6,5.1-1,7.7-1.4c5.4-0.9,10.8-1.2,16.2-1.2c2.4,0,4.9-0.2,7.3-0.3c1.5-0.1,1.8-0.5,1.9-2
		c0-5.9,0.5-9.9,0.4-15.8"/>
	<path class="st0" d="M56.6,11.3c-0.1,4-0.2,8-0.2,12c-0.1,4.9-0.1,9.8-0.1,14.7c-0.1,4.4-0.2,8.7-0.2,13.1
		c-0.1,7-0.4,14.1-0.2,21.2c0,0.8-0.3,1.7-0.5,2.5"/>
	<path class="st0" d="M107,28c-1.2-1.8-1.1-3.8-1-5.9c0.2-3.6,0.6-7.2,0.2-10.8c-0.2-1.4,0.1-2.8-0.1-4.2c-0.3-2-1-2.7-3-2.7
		c-2.2,0-4.3-0.1-6.4-0.2C94.6,4,92.4,4,90.3,4c-5.7-0.1-11.2,0.8-16.7,2c-5,1.1-9.9,2.4-14.6,4.2c-1.7,0.6-3,0.7-4.8,0
		c-4.9-1.8-10-3.2-15.1-4.5c-2.2-0.6-4.5-0.9-6.8-1.2c-2.9-0.3-5.8-0.5-8.7-0.5c-2.7-0.1-5.4,0.2-8.2,0.2C11.8,4.3,8.2,5,4.5,5"/>
</g>
<g id="_レイヤー_1-2_00000071539362779145422050000001923540202483828404_">
	<path class="st1" d="M78.9,48.8c1.6,1,2.6,2.5,3.7,4c0.9,1.1,2.2,1.9,2.7,3.3"/>
	<path class="st1" d="M83.9,36c-1.1,0.3-2.2,0-3.3,0.1c-4.8,0.2-9.6,0.1-14.4,0.2"/>
	<path class="st1" d="M14.9,20.7c5.8,0.2,11.7,0.6,17.5,0.8c2.8,0.1,5.7,0.5,8.5,0.4"/>
	<path class="st1" d="M117.9,31.3c-1,1.6-2.6,2.5-4,3.6c-5.3,4.1-10.6,8.2-15.9,12.4c-3.4,2.7-6.9,5.4-10.4,7.9
		c-2.4,1.7-5.2,2.7-8.2,2.9c-1.7,0.1-3.4,0.6-5.2,0.5"/>
	<path class="st1" d="M40.3,37.4c-8.5,0-17.1-0.2-25.7,0.1"/>
	<path class="st1" d="M94.2,18.7C89,18.9,83.9,19.6,78.7,20c-3,0.3-6,0.5-9.1,0.4c-1,0-2,0.1-3,0.2"/>
	<path class="st1" d="M41.1,52.6c-1,0.5-1.9-0.1-2.8-0.1c-3.8,0.1-7.5-0.1-11.3,0.1c-2,0.1-4-0.1-6-0.1c-1.6,0-3.2,0.3-4.8-0.1
		c-0.4-0.1-0.9,0-1.4,0.2"/>
	<path class="st1" d="M118.3,31.2c-1.3-3.1-3.6-5.4-5.7-7.9c-1-1.2-1.8-1.3-3.1-0.4c-4.3,3.1-8.5,6.4-12.7,9.7
		c-5.3,4.3-10.5,8.7-15.8,12.9c-1,0.8-1.7,1.7-2.3,2.8c-0.5,1-1.4,1.8-2.1,2.8c-0.9,1.5-1.9,3-2.7,4.6c-0.4,0.7-0.5,1.5-0.5,2.2"/>
	<path class="st1" d="M2.5,8.3C2.3,10,2.3,11,2.4,13c0,0.2-0.1-0.3-0.1-0.1c-0.1,7.9-0.2,14.6-0.2,22.5c0,3.8-0.1,7.6,0,11.4
		c0.1,3.8-0.1,7.7,0.2,11.5c0.2,2.3,0.5,4.6,0.8,6.9c0.2,1.3,1,1.8,2.3,1.9c5.5,0.2,11.1,0.5,16.6,1c2.5,0.2,5,0.2,7.6,0.5
		c3.7,0.4,7.4,1,11,1.8c3.5,0.7,7,1.6,10.4,2.5c0.5,0.1,1,0.2,1.5,0.1c0.3-0.1,0.8-0.2,1-0.1c1.6,1.2,3.2,0.5,4.7,0.1
		c4.3-1.3,8.6-2.4,12.9-3.4c2.5-0.6,5.1-1,7.7-1.4c5.4-0.9,10.8-1.2,16.2-1.2c2.4,0,4.9-0.2,7.3-0.3c1.5-0.1,1.8-0.5,1.9-2
		c0-5.9,0.5-9.9,0.4-15.8"/>
	<path class="st1" d="M54.6,9.3c-0.1,4-0.2,8-0.2,12c-0.1,4.9-0.1,9.8-0.1,14.7c-0.1,4.4-0.2,8.7-0.2,13.1c-0.1,7-0.4,14.1-0.2,21.2
		c0,0.8-0.3,1.7-0.5,2.5"/>
	<path class="st1" d="M105,26c-1.2-1.8-1.1-3.8-1-5.9c0.2-3.6,0.6-7.2,0.2-10.8c-0.2-1.4,0.1-2.8-0.1-4.2c-0.3-2-1-2.7-3-2.7
		c-2.2,0-4.3-0.1-6.4-0.2C92.6,2,90.4,2,88.3,2c-5.7-0.1-11.2,0.8-16.7,2c-5,1.1-9.9,2.4-14.6,4.2c-1.7,0.6-3,0.7-4.8,0
		c-4.9-1.8-10-3.2-15.1-4.5c-2.2-0.6-4.5-0.9-6.8-1.2c-2.9-0.3-5.8-0.5-8.7-0.5c-2.7,0-5.4,0.2-8.2,0.2C9.8,2.3,6.2,3,2.5,3"/>
</g>
</svg>
