<?xml version="1.0" encoding="utf-8"?>
<!-- Generator: Adobe Illustrator 27.6.1, SVG Export Plug-In . SVG Version: 6.00 Build 0)  -->
<svg version="1.1" id="_レイヤー_2" xmlns="http://www.w3.org/2000/svg" xmlns:xlink="http://www.w3.org/1999/xlink" x="0px"
	 y="0px" viewBox="0 0 88 121.2" style="enable-background:new 0 0 88 121.2;" xml:space="preserve">
<style type="text/css">
	.st0{fill:none;stroke:#B3B3B3;stroke-width:4;stroke-linecap:round;stroke-linejoin:round;}
	.st1{fill:#B3B3B3;}
	.st2{fill:none;stroke:#FFFFFF;stroke-width:4;stroke-linecap:round;stroke-linejoin:round;}
	.st3{fill:#FFFFFF;}
</style>
<g id="_レイヤー_1-2">
	<path class="st0" d="M45.8,37.1c-0.1-1.5-0.2-2.9,0-4.4c0-0.3,0.1-0.6-0.2-0.9c-1.1-1-1.4-2.3-1.8-3.6c-1.9-5.9-5.5-10.6-10.8-13.9
		c-3.7-2.3-7.5-4.2-11.8-5.1c-1-0.2-2-0.3-3-0.2c-1.4,0.1-2.1,0.6-2.2,2.1c-0.8,7.8,2.1,16.8,9.9,21.3c3.2,1.8,6.4,3.4,10,4.2
		c1.1,0.3,2,0.8,2.8,1.7"/>
	<path class="st0" d="M54.8,38c0.8-1.2,2-1.5,3.4-1.9c4-1.2,7.6-3.1,10.9-5.7c4.6-3.5,7.2-8.3,9.7-13.3c1.7-3.4,3.4-6.7,4.2-10.5
		c0-0.2,0.2-0.3,0.2-0.5c0.4-2-0.4-3.1-2.5-3.1c-6.4-0.1-12.5,1.3-18.4,3.9c-7.3,3.3-11.2,9.4-13.5,16.8c-0.6,2-1.1,3.9-1.5,6
		c-0.2,0.9-0.6,1.9-1.6,2.4"/>
	<path class="st0" d="M38.7,119c-6.1-1-11.6-3.3-16.8-6.8c-6.2-4.1-11-9.4-14.1-16.3c-1.8-3.9-3-7.9-3.5-12.1
		c-0.9-7.3,0.2-14.2,3.3-20.8c2.4-5.2,5.8-9.6,10.2-13.4c4.4-3.8,9.5-6.5,14.9-8.6c0.9-0.3,1.8-0.6,2.7-0.8c0.9-0.2,1.8-0.6,2.5-1.3
		c0.5-0.6,1.2-0.8,2-0.7c1.9,0.2,3.8,0.2,5.5-0.9c0.3-0.2,0.5-0.2,0.9,0c1,0.5,2.1,0.4,3.2,0.4c1.2,0,2.4,0,3.6,0.1
		c0.9,0.1,1.8,0.1,2.5,1c0.7,0.7,1.8,0.9,2.7,1.2c9.2,2.9,16.5,8.4,21.6,16.6c2.8,4.5,4.6,9.5,5.3,14.8c0.6,4.1,0.8,8.1,0.4,12.1
		c-0.6,7.7-3,14.8-8.2,20.8c-4.6,5.2-10.1,8.9-16.6,11.3c-4.5,1.7-9.1,2.7-13.8,3.3c-1.5,0.2-2.2,0.2-4.5,0.2
		C41.4,119.1,40.2,119.3,38.7,119L38.7,119z"/>
	<path class="st1" d="M21.9,57.5c-0.4,0.2-0.8,0.4-1.2,0.7c-0.5,0.4-1,0.8-1.4,1.3c-0.8,1-1.5,2.1-1.8,3.4c-0.1,0.6-0.1,1.2,0.2,1.7
		c0.3,0.5,0.8,0.9,1.3,1c0.6,0.1,1.2,0.1,1.7-0.2c0.5-0.3,0.9-0.8,1-1.3c0.1-0.3,0.2-0.6,0.3-0.9l-0.2,0.5c0.2-0.5,0.5-0.9,0.8-1.3
		l-0.4,0.5c0.3-0.4,0.7-0.8,1.1-1.1L23,62.1c0.4-0.3,0.8-0.5,1.2-0.7c0.5-0.2,0.9-0.9,1-1.3c0.1-0.5,0.1-1.3-0.2-1.7s-0.8-0.9-1.3-1
		l-0.6-0.1C22.6,57.2,22.3,57.3,21.9,57.5L21.9,57.5L21.9,57.5z"/>
	<path class="st1" d="M15.6,75.5L15.2,80c0,0.6,0.3,1.2,0.7,1.6s1,0.7,1.6,0.7c0.6,0,1.2-0.2,1.6-0.7s0.6-1,0.7-1.6l0.4-4.4
		c0-0.6-0.3-1.2-0.7-1.6s-1-0.7-1.6-0.7s-1.2,0.2-1.6,0.7S15.7,74.9,15.6,75.5L15.6,75.5z"/>
	<path class="st1" d="M18.6,95.5c-0.1,0.8,0,1.7,0.2,2.5c0.2,0.9,0.7,1.7,1.3,2.3c0.3,0.3,0.8,0.5,1.3,0.5s1-0.2,1.3-0.5
		s0.6-0.8,0.5-1.3s-0.2-0.9-0.5-1.3c-0.1-0.1-0.1-0.1-0.2-0.2l0.3,0.4c-0.2-0.2-0.3-0.5-0.5-0.8l0.2,0.4c-0.2-0.4-0.3-0.8-0.3-1.2
		l0.1,0.5c-0.1-0.4-0.1-0.9,0-1.3s-0.2-1-0.5-1.3c-0.3-0.3-0.8-0.6-1.3-0.5s-1,0.2-1.3,0.5l-0.3,0.4C18.7,94.9,18.6,95.2,18.6,95.5
		C18.6,95.5,18.6,95.5,18.6,95.5z"/>
	<path class="st1" d="M28.3,67.2c-0.6,1.5-0.9,3.1-0.9,4.8c0,0.6,0.3,1.2,0.7,1.6s1,0.7,1.6,0.7s1.2-0.2,1.6-0.7s0.6-1,0.7-1.6
		c0-0.5,0-0.9,0.1-1.4l-0.1,0.6c0.1-1,0.4-1.9,0.8-2.8c0.1-0.3,0.1-0.6,0-0.9c0-0.3-0.1-0.6-0.3-0.8c-0.3-0.5-0.8-0.9-1.3-1
		c-0.6-0.1-1.2-0.1-1.7,0.2l-0.5,0.3C28.6,66.5,28.4,66.9,28.3,67.2C28.3,67.2,28.3,67.2,28.3,67.2z"/>
	<path class="st1" d="M27.1,83.5l0.9,3.2c0.1,0.6,0.5,1.1,1,1.3c0.3,0.2,0.5,0.2,0.8,0.3c0.3,0.1,0.6,0.1,0.9,0
		c0.5-0.2,1.1-0.5,1.3-1c0.3-0.5,0.4-1.1,0.2-1.7l-0.9-3.2c-0.1-0.6-0.5-1.1-1-1.3c-0.3-0.2-0.5-0.2-0.8-0.3c-0.3-0.1-0.6-0.1-0.9,0
		c-0.5,0.2-1.1,0.5-1.3,1S26.9,82.9,27.1,83.5L27.1,83.5z"/>
</g>
<g id="_レイヤー_1-2_00000052782829596483589050000011728952967205821098_">
	<path class="st2" d="M43.8,36.1c-0.1-1.5-0.2-2.9,0-4.4c0-0.3,0.1-0.6-0.2-0.9c-1.1-1-1.4-2.3-1.8-3.6c-1.9-5.9-5.5-10.6-10.8-13.9
		c-3.7-2.3-7.5-4.2-11.8-5.1c-1-0.2-2-0.3-3-0.2c-1.4,0.1-2.1,0.6-2.2,2.1c-0.8,7.8,2.1,16.8,9.9,21.3c3.2,1.9,6.4,3.4,10,4.2
		c1.1,0.3,2,0.8,2.8,1.7"/>
	<path class="st2" d="M52.8,37c0.8-1.2,2-1.5,3.4-1.9c4-1.2,7.6-3.1,10.9-5.7c4.6-3.5,7.2-8.3,9.7-13.3c1.7-3.4,3.4-6.7,4.2-10.5
		c0-0.2,0.2-0.3,0.2-0.5c0.4-2-0.4-3.1-2.5-3.1c-6.4-0.1-12.5,1.3-18.4,3.9C53,9.2,49.2,15.3,46.9,22.6c-0.6,2-1.1,3.9-1.5,6
		c-0.2,0.9-0.6,1.9-1.6,2.4"/>
	<path class="st2" d="M36.7,118c-6.1-1-11.6-3.3-16.7-6.8c-6.2-4.1-11-9.4-14.1-16.3c-1.8-3.9-3-7.9-3.5-12.1
		c-0.9-7.3,0.2-14.2,3.3-20.8c2.4-5.2,5.8-9.6,10.2-13.4c4.4-3.8,9.5-6.5,14.9-8.6c0.9-0.3,1.8-0.6,2.7-0.8c0.9-0.2,1.8-0.6,2.5-1.3
		c0.5-0.6,1.2-0.8,2-0.7c1.9,0.2,3.8,0.2,5.5-0.9c0.3-0.2,0.5-0.2,0.9,0c1,0.5,2.1,0.4,3.2,0.4c1.2,0,2.4,0,3.6,0.1
		c0.9,0.1,1.8,0.1,2.5,1c0.7,0.7,1.8,0.9,2.7,1.2c9.2,2.9,16.5,8.4,21.6,16.6c2.8,4.5,4.6,9.5,5.3,14.8c0.6,4.1,0.8,8.1,0.4,12.1
		c-0.6,7.7-3,14.8-8.2,20.8c-4.6,5.2-10.1,8.9-16.6,11.3c-4.5,1.7-9.1,2.7-13.8,3.3c-1.5,0.2-2.2,0.2-4.5,0.2
		C39.4,118.1,38.2,118.3,36.7,118L36.7,118z"/>
	<path class="st3" d="M19.9,56.5c-0.4,0.2-0.8,0.4-1.2,0.7c-0.5,0.4-1,0.8-1.4,1.3c-0.8,1-1.5,2.1-1.8,3.4c-0.1,0.6-0.1,1.2,0.2,1.7
		c0.3,0.5,0.8,0.9,1.3,1c0.6,0.1,1.2,0.1,1.7-0.2c0.5-0.3,0.9-0.8,1-1.3c0.1-0.3,0.2-0.6,0.3-0.9l-0.2,0.5c0.2-0.5,0.5-0.9,0.8-1.3
		l-0.4,0.5c0.3-0.4,0.7-0.8,1.1-1.1L21,61.1c0.4-0.3,0.8-0.5,1.2-0.7c0.5-0.2,0.9-0.9,1-1.3c0.1-0.5,0.1-1.3-0.2-1.7s-0.8-0.9-1.3-1
		l-0.6-0.1C20.6,56.2,20.3,56.3,19.9,56.5L19.9,56.5L19.9,56.5z"/>
	<path class="st3" d="M13.6,74.5L13.2,79c0,0.6,0.3,1.2,0.7,1.6s1,0.7,1.6,0.7s1.2-0.2,1.6-0.7s0.6-1,0.7-1.6l0.4-4.4
		c0-0.6-0.3-1.2-0.7-1.6s-1-0.7-1.6-0.7s-1.2,0.2-1.6,0.7S13.7,73.9,13.6,74.5L13.6,74.5z"/>
	<path class="st3" d="M16.6,94.5c-0.1,0.8,0,1.7,0.2,2.5c0.2,0.9,0.7,1.7,1.3,2.3c0.3,0.3,0.8,0.5,1.3,0.5s1-0.2,1.3-0.5
		s0.6-0.8,0.5-1.3s-0.2-0.9-0.5-1.3c-0.1-0.1-0.1-0.1-0.2-0.2l0.3,0.4c-0.2-0.2-0.3-0.5-0.5-0.8l0.2,0.4c-0.2-0.4-0.3-0.8-0.3-1.2
		l0.1,0.5c-0.1-0.4-0.1-0.9,0-1.3s-0.2-1-0.5-1.3c-0.3-0.3-0.8-0.6-1.3-0.5s-1,0.2-1.3,0.5l-0.3,0.4C16.7,93.9,16.6,94.2,16.6,94.5
		C16.6,94.5,16.6,94.5,16.6,94.5z"/>
	<path class="st3" d="M26.3,66.2c-0.6,1.5-0.9,3.1-0.9,4.8c0,0.6,0.3,1.2,0.7,1.6s1,0.7,1.6,0.7s1.2-0.2,1.6-0.7s0.6-1,0.7-1.6
		c0-0.5,0-0.9,0.1-1.4l-0.1,0.6c0.1-1,0.4-1.9,0.8-2.8c0.1-0.3,0.1-0.6,0-0.9c0-0.3-0.1-0.6-0.3-0.8c-0.3-0.5-0.8-0.9-1.3-1
		c-0.6-0.1-1.2-0.1-1.7,0.2l-0.5,0.3C26.6,65.5,26.4,65.9,26.3,66.2C26.3,66.2,26.3,66.2,26.3,66.2z"/>
	<path class="st3" d="M25.1,82.5l0.9,3.2c0.1,0.6,0.5,1.1,1,1.3c0.3,0.2,0.5,0.2,0.8,0.3c0.3,0.1,0.6,0.1,0.9,0
		c0.5-0.2,1.1-0.5,1.3-1s0.4-1.1,0.2-1.7l-0.9-3.2c-0.1-0.6-0.5-1.1-1-1.3c-0.3-0.2-0.5-0.2-0.8-0.3c-0.3-0.1-0.6-0.1-0.9,0
		c-0.5,0.2-1.1,0.5-1.3,1S24.9,81.9,25.1,82.5L25.1,82.5z"/>
</g>
</svg>
