<?xml version="1.0" encoding="UTF-8"?><svg id="_レイヤー_2" xmlns="http://www.w3.org/2000/svg" viewBox="0 0 85.97 120.16"><defs><style>.cls-1{fill:#7a2f27;}.cls-2{fill:none;stroke:#7a2f27;stroke-linecap:round;stroke-linejoin:round;stroke-width:4px;}</style></defs><g id="_レイヤー_1-2"><path class="cls-2" d="m43.84,36.13c-.1-1.46-.22-2.91-.01-4.38.04-.3.08-.61-.23-.88-1.09-.95-1.38-2.27-1.8-3.6-1.89-5.94-5.51-10.6-10.84-13.89-3.67-2.27-7.5-4.18-11.75-5.11-.97-.21-2-.28-3-.25-1.44.05-2.09.65-2.24,2.1-.81,7.84,2.15,16.78,9.85,21.27,3.17,1.85,6.43,3.39,10.01,4.25,1.07.26,2.04.84,2.75,1.73"/><path class="cls-2" d="m52.84,37c.82-1.17,2.03-1.52,3.36-1.93,3.96-1.22,7.59-3.13,10.91-5.68,4.56-3.49,7.21-8.34,9.7-13.29,1.69-3.36,3.4-6.74,4.17-10.48.04-.18.2-.33.24-.5.42-1.99-.42-3.07-2.49-3.12-6.42-.15-12.53,1.28-18.37,3.87-7.35,3.27-11.16,9.44-13.47,16.75-.62,1.95-1.12,3.94-1.46,5.98-.15.89-.57,1.91-1.57,2.38"/><path class="cls-2" d="m36.71,118.01c-6.09-1-11.63-3.34-16.75-6.75-6.2-4.13-11.01-9.45-14.12-16.26-1.77-3.87-2.98-7.88-3.53-12.12-.93-7.26.18-14.15,3.28-20.75,2.44-5.2,5.85-9.63,10.22-13.41,4.44-3.83,9.46-6.55,14.91-8.57.88-.33,1.81-.58,2.73-.81.91-.23,1.85-.59,2.5-1.34.55-.64,1.25-.81,2.01-.73,1.92.19,3.81.25,5.5-.89.32-.21.54-.18.89-.02,1.02.47,2.14.4,3.24.4,1.21,0,2.42.04,3.62.13.92.07,1.79.14,2.54.95.66.71,1.75.88,2.71,1.17,9.24,2.88,16.51,8.43,21.59,16.64,2.8,4.52,4.6,9.49,5.34,14.84.56,4.05.75,8.09.41,12.13-.64,7.71-3.02,14.79-8.2,20.76-4.55,5.24-10.14,8.86-16.62,11.27-4.47,1.66-9.08,2.65-13.77,3.29-1.5.2-2.19.21-4.49.18-1.28-.02-2.48.14-4-.11Z"/><path class="cls-1" d="m19.93,56.45c-.43.19-.83.43-1.21.71-.52.39-1.01.79-1.42,1.29-.83,1-1.47,2.11-1.78,3.38-.14.58-.08,1.21.23,1.73.27.47.81.91,1.34,1.03.58.13,1.22.1,1.73-.23.48-.31.9-.77,1.03-1.34.07-.31.17-.61.3-.91l-.23.54c.21-.48.47-.93.79-1.34l-.35.46c.31-.39.66-.75,1.06-1.06l-.46.35c.38-.29.79-.54,1.23-.73.48-.21.9-.86,1.03-1.34.15-.54.08-1.26-.23-1.73s-.77-.9-1.34-1.03l-.6-.08c-.41,0-.78.1-1.14.31h0Z"/><path class="cls-1" d="m13.6,74.52l-.36,4.43c-.04.55.28,1.21.66,1.59s1.03.68,1.59.66,1.19-.22,1.59-.66.61-.97.66-1.59l.36-4.43c.04-.55-.28-1.21-.66-1.59s-1.03-.68-1.59-.66-1.19.22-1.59.66-.61.97-.66,1.59h0Z"/><path class="cls-1" d="m16.58,94.51c-.1.82,0,1.7.22,2.49.24.86.66,1.68,1.28,2.33.32.33.83.53,1.29.53s.98-.2,1.29-.53.56-.8.53-1.29-.19-.93-.53-1.29c-.06-.07-.12-.14-.18-.21l.28.37c-.18-.24-.33-.5-.45-.78l.18.44c-.16-.39-.27-.8-.33-1.22l.07.48c-.06-.44-.06-.88-.01-1.32s-.24-.99-.53-1.29c-.32-.32-.83-.55-1.29-.53s-.96.18-1.29.53l-.28.37c-.16.28-.25.59-.25.92h0Z"/><path class="cls-1" d="m26.32,66.23c-.62,1.49-.91,3.13-.94,4.75,0,.57.26,1.19.66,1.59s1.03.68,1.59.66,1.19-.22,1.59-.66.65-.98.66-1.59c0-.46.04-.91.1-1.37l-.08.6c.13-.96.39-1.89.76-2.78.09-.3.11-.6.04-.9-.01-.3-.1-.58-.27-.84-.27-.47-.81-.91-1.34-1.03-.58-.13-1.22-.1-1.73.23l-.46.35c-.28.28-.47.61-.58.99h0Z"/><path class="cls-1" d="m25.1,82.52l.91,3.24c.15.55.54,1.06,1.03,1.34.26.16.54.25.84.27.3.07.6.05.9-.04.54-.18,1.07-.51,1.34-1.03s.39-1.14.23-1.73l-.91-3.24c-.15-.55-.54-1.06-1.03-1.34-.26-.16-.54-.25-.84-.27-.3-.07-.6-.05-.9.04-.54.18-1.07.51-1.34,1.03s-.39,1.14-.23,1.73h0Z"/></g></svg>