<?xml version="1.0" encoding="utf-8"?>
<!-- Generator: Adobe Illustrator 27.6.1, SVG Export Plug-In . SVG Version: 6.00 Build 0)  -->
<svg version="1.1" id="_レイヤー_2" xmlns="http://www.w3.org/2000/svg" xmlns:xlink="http://www.w3.org/1999/xlink" x="0px"
	 y="0px" viewBox="0 0 124 116.7" style="enable-background:new 0 0 124 116.7;" xml:space="preserve">
<style type="text/css">
	.st0{fill:none;stroke:#B3B3B3;stroke-width:4;stroke-linecap:round;stroke-linejoin:round;}
	.st1{fill:none;stroke:#FFFFFF;stroke-width:4;stroke-linecap:round;stroke-linejoin:round;}
</style>
<g id="_レイヤー_1-2">
	<path class="st0" d="M63.6,90.3c0,1-0.3,1.9-0.8,2.9c-1.3,2.6-2.5,5.2-3.8,7.9c-2,4.1-3.9,8.2-6.5,12c-1.3,1.8-2.3,2.6-4,0
		c-1.7-2.8-2.8-5.9-4-9c-1.3-3.6-2.4-7.2-3.5-10.9c-0.3-1,0.3-2.1-0.3-3.1"/>
	<path class="st0" d="M60.4,42.5c-0.7-0.5-1-1.2-1.4-2c-0.9-1.8-1.8-3.5-3-5.1c-2.4-3.1-5.4-5.3-9.2-6.4c-7.2-2-14.8,1.6-16.5,9.7
		c-1.3,6.6-0.2,12.9,3.5,18.6c4.8,7.6,11.4,13.4,19.5,17.4c1.6,0.8,3.3,1.5,5.1,1.8c2.4,0.4,4.7-0.3,6.9-1.2
		c3.4-1.5,6.4-3.6,9.2-5.9c2.1-1.7,4.1-3.4,5.9-5.4c4.5-4.9,8.5-10.2,10.7-16.5c1.8-5.2,1.9-10.5-2-15.1c-3-3.5-6.8-4.9-11.5-4
		c-4.5,0.8-7.8,3.4-10.6,6.7c-1.6,1.8-3,3.8-3.9,6.1c-0.4,0.9-1.2,1.5-2.1,2"/>
	<path class="st0" d="M40.9,93c-1.1,0-2.1,0.4-3.2,0.1c-3.9-0.8-7.9-1.3-11.7-2.4c-4.7-1.3-9.4-2.7-13.6-5.2c-4-2.4-6.4-5.7-7-10.4
		c-0.2-1.7-0.2-3.4-0.5-5c-0.5-2.3-0.7-4.7-0.7-7c0.1-3-0.1-6.1,0.1-9.1c0.2-2.5,0.6-5,0.7-7.5C5,41.6,5.8,36.8,6.8,32
		c1.7-8.2,5.6-15.1,11.9-20.6c2.1-1.8,4.4-3.2,7-4.3C30.6,5,35.7,4.3,41,4.3c6.3,0,12.7-0.4,19-0.3c9.1,0.1,18.3-0.2,27.4,0.6
		c5,0.4,9.9,0.9,14.7,2.1c2,0.5,4,1,5.8,2.1c3.1,1.9,5.3,4.6,6.9,7.9c3.4,6.8,6.3,11.9,6.6,19.5c0.1,1.4,0,3,0.5,5.8
		c0.1,0.6-0.1,5.8-0.5,9.2c0,2-0.5,2.9-0.6,4.2c-0.8,7.5-2.9,14.6-6.7,21.1c-2.5,4.3-5.7,8.1-10,10.8c-3,1.8-6.3,2.8-9.6,3.3
		c-4,0.7-8.1,1.2-12.1,1.4c-4.1,0.2-8.2,0.4-12.4,0.6c-1.5,0.1-2.9-0.1-4.4,0.1c-0.8,0.1-1.5-0.2-2.1-0.5"/>
</g>
<g id="_レイヤー_1-2_00000178920155794156848630000006350929997485950646_">
	<path class="st1" d="M61.6,88.3c0,1-0.3,1.9-0.8,2.9c-1.3,2.6-2.5,5.2-3.8,7.9c-2,4.1-3.9,8.2-6.5,12c-1.3,1.8-2.3,2.6-4,0
		c-1.7-2.8-2.8-5.9-4-9c-1.3-3.6-2.4-7.2-3.5-10.9c-0.3-1,0.3-2.1-0.3-3.1"/>
	<path class="st1" d="M58.4,40.5c-0.7-0.5-1-1.2-1.4-2c-0.9-1.8-1.8-3.5-3-5.1c-2.4-3.1-5.4-5.3-9.2-6.4c-7.2-2-14.8,1.6-16.5,9.7
		c-1.3,6.6-0.2,12.9,3.5,18.6c4.9,7.6,11.4,13.4,19.5,17.4c1.6,0.8,3.3,1.5,5.1,1.8c2.4,0.4,4.7-0.3,6.9-1.2
		c3.4-1.5,6.4-3.6,9.2-5.9c2.1-1.7,4.1-3.4,5.9-5.4c4.5-4.9,8.5-10.2,10.7-16.5c1.8-5.2,1.9-10.5-2-15.1c-3-3.5-6.8-4.9-11.5-4
		c-4.5,0.8-7.8,3.4-10.6,6.7c-1.6,1.8-3,3.8-3.9,6.1c-0.4,0.9-1.2,1.5-2.1,2"/>
	<path class="st1" d="M38.9,91c-1.1,0-2.1,0.4-3.2,0.1c-3.9-0.8-7.9-1.3-11.8-2.4c-4.7-1.3-9.4-2.7-13.6-5.2c-4-2.4-6.4-5.7-7-10.4
		c-0.2-1.7-0.2-3.4-0.5-5c-0.5-2.3-0.7-4.7-0.7-7c0.1-3-0.2-6.1,0.1-9.1c0.2-2.5,0.6-5,0.7-7.5C3,39.6,3.8,34.8,4.7,30
		c1.7-8.2,5.6-15.1,11.9-20.6c2.1-1.8,4.4-3.2,7-4.3C28.6,3,33.7,2.3,39,2.3c6.3,0,12.7-0.4,19-0.3c9.1,0.1,18.3-0.1,27.4,0.6
		c5,0.4,9.9,0.9,14.7,2.1c2,0.5,4,1,5.8,2.1c3.1,1.9,5.3,4.6,6.9,7.9c3.4,6.8,6.3,11.9,6.6,19.5c0.1,1.4,0,3,0.5,5.8
		c0.1,0.6-0.1,5.8-0.5,9.2c0,2-0.5,2.9-0.6,4.2c-0.8,7.5-2.9,14.6-6.7,21.1c-2.5,4.3-5.7,8.1-10,10.8c-3,1.8-6.3,2.8-9.6,3.3
		c-4,0.7-8.1,1.2-12.1,1.4c-4.1,0.2-8.2,0.4-12.4,0.6c-1.5,0.1-2.9-0.1-4.4,0.1c-0.8,0.1-1.5-0.2-2.1-0.5"/>
</g>
</svg>
