<?xml version="1.0" encoding="UTF-8"?><svg id="_レイヤー_2" xmlns="http://www.w3.org/2000/svg" viewBox="0 0 121.97 114.74"><defs><style>.cls-1{fill:none;stroke:#7a2f27;stroke-linecap:round;stroke-linejoin:round;stroke-width:4px;}</style></defs><g id="_レイヤー_1-2"><path class="cls-1" d="m61.58,88.28c.03,1.04-.31,1.95-.79,2.89-1.33,2.59-2.51,5.24-3.78,7.86-1.98,4.1-3.89,8.24-6.48,12.02-1.26,1.84-2.35,2.64-4-.03-1.73-2.81-2.83-5.93-3.98-9-1.34-3.56-2.43-7.22-3.5-10.87-.29-.97.3-2.11-.29-3.11"/><path class="cls-1" d="m58.41,40.51c-.7-.47-1.03-1.25-1.39-1.98-.86-1.79-1.82-3.54-3.02-5.11-2.38-3.09-5.37-5.33-9.22-6.42-7.19-2.04-14.82,1.59-16.46,9.66-1.33,6.58-.16,12.9,3.47,18.6,4.85,7.61,11.41,13.37,19.49,17.37,1.61.8,3.29,1.51,5.11,1.77,2.44.36,4.68-.29,6.88-1.25,3.39-1.48,6.37-3.61,9.23-5.9,2.07-1.66,4.08-3.4,5.88-5.36,4.51-4.89,8.52-10.17,10.7-16.51,1.8-5.25,1.95-10.54-1.97-15.09-3.01-3.5-6.81-4.92-11.49-4.05-4.46.83-7.75,3.39-10.61,6.67-1.6,1.83-3,3.8-3.92,6.1-.36.9-1.21,1.53-2.09,2.01"/><path class="cls-1" d="m38.9,91.03c-1.09-.02-2.13.37-3.25.14-3.92-.79-7.88-1.34-11.75-2.38-4.73-1.27-9.38-2.71-13.63-5.25-3.98-2.38-6.4-5.72-7.03-10.38-.23-1.67-.16-3.39-.53-4.99-.53-2.33-.73-4.65-.69-7.01.06-3.04-.15-6.09.13-9.12.23-2.5.64-5,.71-7.5.14-4.91.91-9.71,1.89-14.5,1.69-8.2,5.59-15.11,11.91-20.6,2.07-1.8,4.44-3.18,6.98-4.28,4.92-2.13,10.1-2.82,15.38-2.84,6.33-.03,12.66-.37,19-.28,9.13.12,18.26-.15,27.38.61,4.96.41,9.9.9,14.74,2.06,1.99.48,3.98,1.05,5.75,2.12,3.12,1.88,5.27,4.64,6.89,7.86,3.43,6.81,6.26,11.87,6.62,19.5.07,1.44,0,3,.54,5.75.11.58-.08,5.84-.54,9.25,0,2-.48,2.89-.63,4.25-.82,7.47-2.88,14.58-6.65,21.11-2.49,4.32-5.66,8.08-9.97,10.77-2.96,1.85-6.26,2.75-9.63,3.35-4.01.72-8.05,1.18-12.12,1.43-4.12.25-8.25.45-12.38.63-1.46.06-2.92-.14-4.38.08-.76.11-1.45-.2-2.12-.49"/></g></svg>