<?xml version="1.0" encoding="UTF-8"?><svg id="_レイヤー_2" xmlns="http://www.w3.org/2000/svg" viewBox="0 0 103.49 105.61"><defs><style>.cls-1{fill:#fff;stroke:#fff;stroke-miterlimit:10;}</style></defs><g id="_レイヤー_1-2"><path class="cls-1" d="m59.62,1.15c1.99.12,3.99-.22,5.97.21.82.18,1.43.55,1.95,1.24,1.63,2.16,2.09,4.74,2.67,7.26.76,3.3,1.52,6.61,1.59,10.03.02,1.16.65,2.08,1.33,3.02,1.84,2.52,4.15,3.07,7.13,2.39,3.33-.75,6.65-1.66,10.08-1.93,2.65-.21,4.64.83,5.92,3.19,2.25,4.14,4.26,8.4,6.1,12.73,1.11,2.6.85,3.69-1.36,5.5-2.71,2.21-5.74,3.93-8.78,5.64-.91.51-1.41,1.12-1.58,2.14-.34,1.96-1.03,3.83-1.7,5.7-.28.77-.13,1.25.44,1.81,2.37,2.3,4.82,4.52,7.37,6.62.84.69,1.65,1.42,2.34,2.27,1.1,1.34,1.29,2.79.47,4.34-.03.06-.07.13-.11.19-2.91,4.68-5.35,9.64-8.45,14.21-1.64,2.41-2.27,3.16-6.07,1.74-3.26-1.22-6.25-3.03-9.38-4.53-.9-.43-1.64-.54-2.51.04-1.08.72-2.22,1.39-3.39,1.96-1.03.5-1.26,1.34-1.42,2.35-.5,3.28-.69,6.61-1.51,9.84-.28,1.09-.65,2.15-1.21,3.13-.61,1.07-1.4,1.93-2.61,2.34-.3.1-.65.17-.75.55-3.41,0-9.65-.21-9.29-.34-.29-.42-.68-.3-1-.29-3.23.08-6.46-.19-9.69-.24-2.41-.04-3.46-.8-4.21-3.14-.81-2.52-1.15-5.14-1.52-7.75-.19-1.32-.33-2.65-.53-3.98-.05-.37-.02-.84-.51-1-2.24-.72-4.22-2.06-6.51-2.67-2.22-.6-4.3-.05-6.39.54-2.78.78-5.55,1.59-8.34,2.36-.66.18-1.35.24-2.03.35-2.1.33-3.59-.58-4.6-2.35-2.05-3.59-3.69-7.38-5.27-11.2-.51-1.24-.88-2.53-1.4-3.76-.83-1.94-.25-3.48,1.29-4.72,2.06-1.66,4.15-3.29,6.27-4.88,2.2-1.66,4.18-3.6,6.48-5.15.25-.17.43-.38.41-.71-.13-1.92-.27-3.83-.38-5.75-.03-.58-.36-.89-.78-1.22-3.31-2.58-6.18-5.63-8.96-8.73-1.9-2.12-2.37-4.78-.91-7.48,2.42-4.47,5.11-8.77,8.1-12.89.08-.12.2-.21.29-.33,1.23-1.71,2.78-2.18,4.84-1.54,4.07,1.27,8.01,2.89,12,4.38.51.19,1.05.32,1.52.57,1.79.94,3.28.38,4.96-.55,2.43-1.34,2.72-3.62,3.29-5.87.97-3.84,1.81-7.71,3.07-11.47.69-2.05,1.78-3.73,4.01-4.36.26-.07.48-.18.54-.47,5.3,0,12.36.63,12.71.65ZM4.71,70.22c.09.27.19.59.3.89,1.55,4.3,3.61,8.37,5.63,12.46.46.94,1.02,1.21,2.04,1.15,2.86-.16,5.47-1.27,8.18-1.99,2.4-.64,4.72-1.56,7.15-2.12.87-.2,1.63-.16,1.86.9.11.52.56.57.91.65,2.81.65,5.29,2.12,7.97,3.07,1.09.39,1.54,1.2,1.64,2.31.34,3.64.71,7.27,1.07,10.91.17,1.74.4,1.89,2.11,2.08,3.29.37,6.6.06,9.89.43,1.91.21,3.83.32,5.76.26,2.35-.07,2.68-.29,3.39-2.56.98-3.13,1.12-6.4,1.5-9.62.29-2.44,1.21-4.36,3.35-5.63,1.22-.72,2.47-1.39,3.62-2.2,2.02-1.42,3.99-1.36,6.11-.22,2.68,1.45,5.4,2.81,8.12,4.18,1.77.89,1.8.88,2.96-.67,2.93-3.9,4.87-8.4,7.72-12.35.37-.52,0-.8-.32-1.09-1.53-1.4-3.11-2.72-4.77-3.96-1.83-1.37-3.8-2.55-5.46-4.14-.45-.43-.99-.87-.89-1.55.37-2.38.46-4.81,1.27-7.12.32-.91.72-1.78.44-2.83-.5-1.92-.24-2.5,1.41-3.65.5-.35,1.02-.69,1.55-1.01,2.83-1.7,5.81-3.14,8.51-5.05.62-.44.81-.8.5-1.6-1.47-3.83-3.33-7.47-5.05-11.19-.97-2.11-1.28-2.2-3.55-1.74-3.33.67-6.65,1.35-9.99,1.98-1.42.27-2.97.77-4.3.2-3.7-1.58-6.23-4.37-7.52-8.21-.11-.34-.15-.71-.16-1.07-.14-4.89-1.35-9.56-2.82-14.18-.15-.46-.32-.6-.8-.65-4.37-.46-8.77-.37-13.16-.61-3.66-.2-4.14.27-5.12,3.84-.94,3.44-2.12,6.85-2.7,10.36-.61,3.7-2.53,6.1-5.75,7.68-.06.03-.12.08-.18.12-2.18,1.56-4.43,1.63-6.87.59-4.39-1.87-8.81-3.65-13.32-5.21-.5-.17-.85-.39-1.3.19-2.96,3.75-5.38,7.82-7.55,12.06-.55,1.08-.53,2.04-.05,3.1.33.73.87,1.24,1.45,1.73,2.52,2.14,5.14,4.15,7.49,6.49.82.82,1.37,1.75,1.56,2.9.13.77-.22,1.51-.2,2.24.09,2.46.17,4.94.52,7.37.18,1.25-.14,1.88-1.16,2.46-4.43,2.51-8.44,5.64-12.47,8.73-.29.22-.6.43-.55.9Z"/><path class="cls-1" d="m71.85,54.54c.69,8.7-5.58,13.83-11.39,15.66-5.98,1.88-11.91,1.59-17.6-1.32-1.65-.84-2.75-2.03-3.57-3.75-1.23-2.55-2.39-5.1-3.07-7.85-2.24-9.09,2.84-19.41,13.27-22.15,4.63-1.22,9.01-.74,13.33,1.03,4.51,1.85,6.9,5.43,8.04,10.01.7,2.79.91,5.63.98,8.38Zm-17.22,12.68c3.4.33,6.62-1.01,9.52-3.36,2.48-2.01,3.65-4.59,3.7-7.75.04-2.65-.18-5.29-.7-7.88-.58-2.89-1.5-5.7-4.22-7.3-5.7-3.36-12.15-3.29-17.64.52-6.23,4.33-7.54,12.37-3.26,19.07.7,1.1,1.49,2.15,2.18,3.25.38.61.86,1.06,1.48,1.4,2.66,1.47,5.5,2.17,8.93,2.05Z"/></g></svg>