<?xml version="1.0" encoding="UTF-8"?><svg id="_レイヤー_2" xmlns="http://www.w3.org/2000/svg" viewBox="0 0 120.91 96.5"><defs><style>.cls-1{fill:none;stroke:#7a2f27;stroke-linecap:round;stroke-linejoin:round;stroke-width:4px;}</style></defs><g id="_レイヤー_1-2"><path class="cls-1" d="m55.1,70.75c.99-.28,2-.13,3-.12,3.75.05,7.5,0,11.25.08,5.13.12,10.25.19,15.37.41.75.03,1.34-.66,2.12-.5"/><path class="cls-1" d="m83.23,53.5c-.08-.82-.75-.52-1.12-.47-1.29.16-2.59.1-3.88.09-6.42-.07-12.83-.13-19.25-.26-1.63-.03-3.25-.15-4.88-.04"/><path class="cls-1" d="m24.1,46.38c1.6.5,3.25.18,4.88.23,3.21.1,6.43-.14,9.62.41,1.41.24,2.8.48,4.14,1.08,1.1.49,1.47,1.25,1.47,2.29.02,5.12.08,10.25-.03,15.37-.05,2.34-.43,4.67-.73,7-.2,1.59-.97,2.32-2.49,2.37-5,.14-9.99.73-15,.49-2.59-.13-5.22-.11-7.75-.85-1.59-.47-1.98-.96-2-2.63-.04-3.46-.07-6.92-.13-10.37-.06-3.25-.2-6.5-.23-9.75-.01-1.71.15-3.42.23-5.12"/><path class="cls-1" d="m9.85,2c6.08.17,8.17.33,14.25.5,1.62.04,3.25.12,4.87.12,17.58,0,35.17,0,52.75.01,4,0,8,0,12,.16,1.58.07,3.17-.06,4.76.3,1.14.26,1.49.97,1.61,1.91.26,2.07.26,4.17.34,6.25.32,8.04.37,16.09.09,24.12-.23,6.67-.04,13.34-.36,20-.31,6.63-.34,13.26-.74,19.87-.22,3.61-.1,7.14.81,10.63.7,2.67,1.99,4.98,4.49,6.37,3.15,1.75,6.37.6,8.63-1.86,2.91-3.16,4.25-6.9,4.37-11.13.1-3.42.24-6.84.43-10.25.25-4.42.31-8.85.72-13.25.12-1.25-.25-5.8-.25-7.42,0-4.08-.09-6.67-.11-10.75l.03-1.67c.26-2.9.18-4.06.06-5.53-.04-.46-.03-.93-.13-1.37-.81-3.3-1.32-3.07-4.24-3.35-2.53-.25-5.06-.41-7.63-.23-.88.06-1.59.08-2.44.09"/><path class="cls-1" d="m2.85,4.25c.03,3.09-.46,6.15-.4,9.25.04,1.79-.21,3.58-.22,5.37-.02,9.75-.04,19.5.01,29.25,0,1.83,0,3.45-.14,5.82-.3,4.77.08,9.18.14,13.93.02,1.83-.07,4.12-.14,6-.07,1.99.22,4.1.59,5.91.26,1.27.68,2.05,1.15,3.21,1.61,3.96,4.03,7.24,7.74,9.52,2.14,1.32,4.48,1.72,6.88,1.71,4.59-.02,9.17.4,13.75.24,12.58-.45,25.17-.23,37.75-.37,6.83-.07,13.66-.5,20.5-.52,2.38,0,4.75-.02,7.12.06,1.11.04,2.18-.11,3.25-.39"/><path class="cls-1" d="m18.82,17.84l-.25,14.85c-.01.65-.04,1.36-.47,1.86"/><path class="cls-1" d="m18.56,18.38c4.5,4.73,9,9.45,13.5,14.18-.55-5.54-.27-11.16.81-16.61"/><path class="cls-1" d="m49.31,15.62c.4.52.08,1.34-.48,1.69s-1.25.38-1.91.39c-2.46.04-4.92.09-7.38.13-.72,5.16.35,10.37,1.42,15.47.03.15.07.31.18.42.13.13.33.15.52.17,3.04.24,6.1.32,9.15.23"/><path class="cls-1" d="m40.11,25.45c3,.69,6.1.93,9.17.71.2-.01.42-.04.55-.19"/><path class="cls-1" d="m55.56,16.6c1.62,5.71,2.44,11.64,2.43,17.57,1.67-5.06,5.54-9.4,6.02-14.71.49,5.1,1.11,10.52,4.31,14.52.79-6.05,5.53-11.26,5.35-17.36"/><path class="cls-1" d="m78.61,32.57c1.15,1.28,3.18,1.04,4.87.7.33-.07.68-.14.95-.34.28-.21.45-.53.59-.85,1.18-2.72.16-6.22-2.29-7.89-1.2-.82-2.8-1.38-3.23-2.76-.11-.34-.13-.71-.1-1.07.12-1.47,1.12-2.83,2.48-3.38s3.03-.29,4.14.67"/></g></svg>