<?xml version="1.0" encoding="UTF-8"?><svg id="_レイヤー_2" xmlns="http://www.w3.org/2000/svg" viewBox="0 0 96.41 119.28"><defs><style>.cls-1{fill:none;stroke:#fff;stroke-linecap:round;stroke-linejoin:round;stroke-width:4px;}</style></defs><g id="_レイヤー_1-2"><path class="cls-1" d="m2.03,24.53c.07.94.61,1.69,1,2.5"/><path class="cls-1" d="m73.91,38.28c1.58,1.12,2.89,2.52,4.25,3.88,1.59,1.58,3.17,3.16,4.75,4.75,1.8,1.8,1.22,3.29-.13,4.37-2.04,1.64-4.21,3.1-6.27,4.73-3.26,2.57-6.31,5.35-9.35,8.16-4.33,4-8.42,8.25-12.49,12.5-2.81,2.94-5.55,5.94-8.35,8.9-2.06,2.18-4.11,1.85-6.14.2-2.2-1.79-4.29-3.7-6.39-5.61-2.86-2.6-5.69-5.23-8.5-7.87-2.15-2.02-4.27-4.06-6.37-6.13-.91-.89-1.05-2.24-.38-3.36,1.27-2.14,2.52-4.29,3.89-6.37,1.06-1.6,2.29-1.92,3.88-.29,4.76,4.87,9.62,9.63,14.48,14.39,1.97,1.94,3.09,1.88,5.11-.25,6.22-6.54,12.08-13.4,17.52-20.61,2.59-3.44,5.35-6.75,7.87-10.25.56-.77,1.31-1.32,2.36-1.13"/><path class="cls-1" d="m93.53,28.65c-2.66-.07-5.13-.98-7.48-2.04-6.71-3.01-13.06-6.69-19.15-10.82-5.29-3.58-10.61-7.12-15.49-11.27-.63-.54-1.26-1.07-1.87-1.63-1.32-1.19-2.18-1.21-3.5,0-1.67,1.54-3.32,3.11-5.13,4.5-5.54,4.24-11.48,7.84-17.62,11.13-5.1,2.73-10.32,5.2-15.52,7.71-1.03.5-2.15.95-3.36,1.05-.86.07-1.3.62-1.52,1.48-.25.99-.43,2-.46,3.01-.12,4.46-.54,8.91-.4,13.37.09,2.67,0,5.35.29,8,.49,4.71.75,9.43,1.29,14.13.89,7.84,2.72,15.45,4.94,22.99,1.32,4.49,3,8.85,5.64,12.74,4.07,5.99,9.96,9.48,16.73,11.63,3.05.97,6.18,1.52,9.37,1.77,1.41.11,4.54.9,5.88.86,1.63-.05,4.87-1.16,6.63-1.02.7.06,1.42-.14,2.12-.23,4.31-.53,8.42-1.75,12.37-3.51,4.94-2.21,9.4-5.1,12.9-9.35,3.82-4.64,5.84-10.12,7.46-15.77,1.29-4.5,2.09-9.11,2.82-13.74.71-4.5,1.58-8.96,1.96-13.51.35-4.21.8-8.41,1.1-12.63.25-3.49.36-7,.51-10.5.06-1.25-.09-2.54.17-3.74.31-1.37.24-2.62-.3-3.89-.14-.32-.31-.59-.14-1.01.57-1.4.82-2.86.52-4.37"/></g></svg>