<?xml version="1.0" encoding="UTF-8"?><svg id="_レイヤー_2" xmlns="http://www.w3.org/2000/svg" viewBox="0 0 83.58 122.71"><defs><style>.cls-1{fill:none;stroke:#fff;stroke-linecap:round;stroke-linejoin:round;stroke-width:4.7px;}</style></defs><g id="_レイヤー_1-2"><path class="cls-1" d="m42.99,85.48c1.78-.63,3.45-1.4,4.76-2.86,1.33-1.47,2.05-5.46.97-7.25-1.48-2.45-3.94-3.91-7.6-3.24-2.29.42-4.5,3-4.6,5.48-.12,3.17,1.11,5.84,4.6,7.24.59.24,1.21.42,1.81.63"/><path class="cls-1" d="m42.87,85.61c.24.82.1,1.67.11,2.5.07,3.58.12,7.17.13,10.75,0,2.04-.07,4.08-.12,6.12"/><path class="cls-1" d="m63.37,54.48c.31-5-.06-10-.17-15-.1-4.85-.49-9.69-1.28-14.51-.63-3.81-1.11-7.64-2.57-11.24-1.01-2.49-2.09-4.96-4.1-6.89-2.27-2.18-4.95-3.36-8-4.02-5.31-1.14-10.22-.18-14.88,2.41-3.62,2.02-5.82,5.2-7.26,8.99-1.32,3.47-2.14,7.05-2.52,10.75-.28,2.75-.5,5.5-.75,8.25-.31,3.42-.22,6.84-.39,10.25-.17,3.42.12,6.84-.09,10.25-.03.46-.08.92-.12,1.38"/><path class="cls-1" d="m3.74,55.98c1.33.04,2.69.25,4,.09,2.96-.37,5.92-.09,8.88-.32,1.51-.11,3.01-.1,4.51-.48.77-.2,1.61.28,2.49.24,3.41-.13,6.84.03,10.25-.19,9.33-.6,18.67-.46,28-.46,4.17,0,8.34-.12,12.5.33,1.42.15,2.84.26,4.24.55,1.71.35,2.17.93,2.14,2.62-.05,3.29-.05,6.58,0,9.87.05,4.04.13,8.08.25,12.12.09,2.92.32,5.82.14,8.75-.11,1.82.13,3.67.08,5.5-.13,5.63-.29,11.25-.5,16.87-.06,1.59-.29,3.17-.49,4.75-.16,1.28-.85,1.89-2.12,2-.79.06-1.58.13-2.37.12-8.34-.11-16.67.24-25,.38-.74.01-1.44.32-2.06.75-.87.61-1.93.87-2.99.87-16.4.03-11.96-.75-29.2-.75,0,0-2.69.12-5,0-1.5-.08-3.92-.48-5.25-.63-3.73-.41-3.73.33-3.85-4.25-.11-4.33-.01-8.67.06-13,.09-5.41-.02-10.83-.03-16.25,0-5.2.09-10.42.42-15.63.16-2.58.18-5.17.12-7.75-.06-2.61.48-5.16.58-7.75.03-.79-.31-1.6.07-2.38"/></g></svg>