<?xml version="1.0" encoding="utf-8"?>
<!-- Generator: Adobe Illustrator 27.6.1, SVG Export Plug-In . SVG Version: 6.00 Build 0)  -->
<svg version="1.1" id="_レイヤー_2" xmlns="http://www.w3.org/2000/svg" xmlns:xlink="http://www.w3.org/1999/xlink" x="0px"
	 y="0px" viewBox="0 0 96.2 121.7" style="enable-background:new 0 0 96.2 121.7;" xml:space="preserve">
<style type="text/css">
	.st0{fill:none;stroke:#B3B3B3;stroke-width:4;stroke-linecap:round;stroke-linejoin:round;}
	.st1{fill:none;stroke:#FFFFFF;stroke-width:4;stroke-linecap:round;stroke-linejoin:round;}
</style>
<g id="_レイヤー_1-2">
	<path class="st0" d="M73.8,83.7c-1.6,0.2-2.7,1.4-4,2.2c-2.6,1.7-5.3,3-8.2,4c-0.9,0.3-1.7,0.7-2.4,1.4"/>
	<path class="st0" d="M62.3,62.8c2-2,2.5-4.2,2.9-5.2c0.7-1.7,1-3.5,1-5.4c0-2.7,0.1-5.4-0.7-8c-1.1-3.9-1.7-5.2-4.2-8.4
		c-0.5-0.6-2.5-2.6-3.1-2.6"/>
	<path class="st0" d="M45.8,18.7c-2.1,0.2-4.3,0.4-6.4,0.7c-7.6,1.4-14.7,3.7-19.6,10.1c-2.6,3.4-4.4,7.2-4.9,11.6
		C14,48.3,15.5,55,18.3,61.5c1.6,3.8,3.8,7.3,6.8,10.2c3.9,3.9,8.7,5.9,14,7c3.9,0.8,7.8,0.8,11.8,0.4c5.7-0.6,10.8-2.8,15.3-6.3
		c4.2-3.3,6.4-7.8,8-12.8c1.1-3.4,1.7-6.9,1.8-10.5c0.1-6.7-2.2-12.7-5.6-18.2c-2-3.2-4.4-6.1-7.3-8.5c-3.2-2.8-7.2-3.6-11.3-4.1
		c-1.9-0.2-3.8-0.2-5.6-0.2"/>
	<path class="st0" d="M38,4.9c-4.2,0.6-8.3,1.8-12.1,3.6C14.3,14,8.1,23.6,5.3,35.7C4.2,40.5,3.9,45.6,4,50.5
		c0.2,6.5,1.3,12.9,3.5,19c0.2,0.6,0.4,1.2,0.8,1.6c2,1.9,3.2,4.5,5,6.5c2.9,3.4,6.6,5.9,10.5,7.8c4.7,2.3,9.6,3.9,14.7,4.8
		c3.9,0.7,7.8,1.3,11.7,1.2c2.3-0.1,4.7-0.2,7-0.4c1.1-0.1,1.8,0.2,2.3,1.4c0.7,1.7,2.2,3,3.4,4.4c3.2,3.7,6.2,7.4,9.4,11.1
		c3,3.5,5.8,7.2,9,10.5c1.1,1.2,2.3,1.5,3.8,0.9c3.4-1.4,6.2-3.7,8.5-6.5c0.9-1.1,0.9-1.8,0-3c-4.9-6.7-9.8-13.3-14.8-20
		c-1.6-2.1-3.3-4.1-4.8-6.1c0.3-2.1,1.9-3.1,3.1-4.4c3.5-4.2,5.8-9,7.2-14.3c1.1-3.8,1.7-7.7,1.8-11.7c0.3-7.4-0.7-14.6-3.2-21.6
		C79.6,22.5,74.2,14.7,66,9.1c-3.8-2.6-8.1-3.9-12.7-4.5c-2.6-0.3-5.2-0.5-7.8-0.6c-1.8-0.1-3.4,0.7-5.1,0.7c-0.7,0-1.4,0-2.1,0.1"
		/>
</g>
<g id="_レイヤー_1-2_00000144337730409127485240000015006962914865209012_">
	<path class="st1" d="M71.8,81.7c-1.6,0.2-2.7,1.4-4,2.2c-2.6,1.7-5.3,3-8.2,4c-0.9,0.3-1.7,0.7-2.4,1.4"/>
	<path class="st1" d="M60.3,60.8c2-2,2.5-4.2,2.9-5.2c0.7-1.7,1-3.5,1-5.4c0-2.7,0.1-5.4-0.7-8c-1.1-3.9-1.7-5.2-4.2-8.4
		c-0.5-0.6-2.5-2.6-3.1-2.6"/>
	<path class="st1" d="M43.8,16.7c-2.1,0.2-4.3,0.4-6.4,0.7c-7.6,1.4-14.7,3.7-19.6,10.1c-2.6,3.4-4.4,7.2-4.9,11.6
		C12,46.3,13.5,53,16.3,59.5c1.6,3.8,3.8,7.3,6.8,10.2c3.9,3.9,8.7,5.9,14,7c3.9,0.8,7.8,0.8,11.8,0.4c5.7-0.6,10.8-2.8,15.3-6.3
		c4.2-3.3,6.4-7.8,8-12.8c1.1-3.4,1.7-6.9,1.8-10.5c0.1-6.7-2.2-12.7-5.6-18.2c-2-3.2-4.4-6.1-7.3-8.5c-3.2-2.8-7.2-3.6-11.3-4.1
		c-1.9-0.2-3.8-0.2-5.6-0.2"/>
	<path class="st1" d="M36,2.9c-4.2,0.6-8.3,1.8-12.1,3.6C12.3,12,6.1,21.6,3.3,33.7C2.2,38.5,1.9,43.6,2,48.5
		c0.2,6.5,1.3,12.9,3.5,19c0.2,0.6,0.4,1.2,0.8,1.6c2,1.9,3.2,4.5,5,6.5c2.9,3.4,6.6,5.9,10.5,7.8c4.7,2.3,9.6,3.9,14.7,4.8
		c3.9,0.7,7.8,1.3,11.7,1.2c2.3-0.1,4.7-0.2,7-0.4c1.1-0.1,1.8,0.2,2.3,1.4c0.7,1.7,2.2,3,3.4,4.4c3.2,3.7,6.2,7.4,9.4,11.1
		c3,3.5,5.8,7.2,9,10.5c1.1,1.2,2.3,1.5,3.8,0.9c3.4-1.4,6.2-3.7,8.5-6.5c0.9-1.1,0.9-1.8,0-3c-4.9-6.7-9.8-13.3-14.8-20
		c-1.6-2.1-3.3-4.1-4.8-6.1c0.3-2.1,1.9-3.1,3.1-4.4c3.5-4.2,5.8-9,7.2-14.3c1.1-3.8,1.7-7.7,1.8-11.7c0.3-7.4-0.7-14.6-3.2-21.6
		C77.6,20.5,72.2,12.7,64,7.1c-3.8-2.6-8.1-3.9-12.7-4.5c-2.6-0.3-5.2-0.5-7.8-0.6c-1.8-0.1-3.4,0.7-5.1,0.7c-0.7,0-1.4,0-2.1,0.1"
		/>
</g>
</svg>
