<?xml version="1.0" encoding="utf-8"?>
<!-- Generator: Adobe Illustrator 27.6.1, SVG Export Plug-In . SVG Version: 6.00 Build 0)  -->
<svg version="1.1" id="_レイヤー_2" xmlns="http://www.w3.org/2000/svg" xmlns:xlink="http://www.w3.org/1999/xlink" x="0px"
	 y="0px" viewBox="0 0 125.5 116" style="enable-background:new 0 0 125.5 116;" xml:space="preserve">
<style type="text/css">
	.st0{fill:none;stroke:#B3B3B3;stroke-width:4;stroke-linecap:round;stroke-linejoin:round;}
	.st1{fill:none;stroke:#FFFFFF;stroke-width:4;stroke-linecap:round;stroke-linejoin:round;}
</style>
<g id="_レイヤー_1-2">
	<path class="st0" d="M122,112.2c-0.5-3.4-2.7-6-4.4-8.7c-4-6.4-8.2-12.6-12.2-18.9c-1.4-2.1-2.7-4.3-3.7-6.6
		c-0.5-1.1-1.3-1.6-2.4-1.9c-3.2-0.8-6.4-0.9-9.6-1.2c-1.2-0.1-2.4,0.1-3.6,0.2"/>
	<path class="st0" d="M5,112.3c1.9,1,4,0.9,6,1.1c9.6,0.5,19.2,0.8,28.8,0.6c11.8-0.2,23.5,0.1,35.2-0.1c5.8-0.1,11.7-0.2,17.5-0.2
		c6-0.1,12.1-0.3,18.1-0.4c3.2-0.1,6.3-0.1,9.5-0.2c0.4,0,0.7-0.1,1-0.3c0.7-0.5,1.5-0.6,2.4-0.5"/>
	<path class="st0" d="M63.3,49.1c3.6-0.4,6.8-1.7,9.4-4.5c1.9-2,3-4.4,3.4-7.1c0.3-1.9,0.4-3.8,0.1-5.8c-0.4-2.6-1.9-4.5-3.6-6.2
		c-1.8-1.9-4.1-3.2-6.5-4.3c-3.4-1.5-6.7-1.1-9.7,0.7c-3.8,2.2-6.4,5.6-7.6,9.9c-0.5,1.9-0.4,3.8-0.1,5.7c0.3,2.5,1,4.9,2.7,6.9
		c2.6,3,5.8,4.8,9.8,5.2"/>
	<path class="st0" d="M34.3,76.2c-0.9,0.2-1.8-0.1-2.6-0.1c-2.6,0.1-5.2,0.2-7.9,0.3c-1.1,0.1-1.9,0.5-2.5,1.4
		c-2.7,3.8-4.8,7.9-6.8,12.1c-2.3,4.9-4.4,9.8-6.6,14.8c-1,2.4-2.3,4.8-2.6,7.5"/>
	<path class="st0" d="M93.1,32.2c0.2-5.9-1.4-11.2-4.9-16c-3.3-4.5-7.8-7.4-12.9-9.5c-3-1.2-6.2-2.1-9.4-2.4
		C57.8,3.4,50,4.6,43.5,10.1c-4,3.4-6.8,7.7-8.8,12.5c-1.4,3.4-2.2,7-2.7,10.6c-0.2,1.5,0,3.2,0,4.7c-0.5,8.2,1.9,15.7,6,22.8
		c4.1,7,8.8,13.5,14.6,19.2c2.1,2.1,4.4,4,7,5.7c2.7,1.7,5,2.1,7.9-0.4c3.4-2.8,6-6.4,8.7-9.8c4.3-5.4,7.8-11.3,10.7-17.7
		c2.3-5.1,4.1-10.3,5.3-15.8c0.7-3.1,1.1-6.4,0.9-9.6"/>
</g>
<g id="_レイヤー_1-2_00000098180302538320894870000005035791370376691328_">
	<path class="st1" d="M120,110.2c-0.5-3.4-2.7-6-4.4-8.7c-4-6.4-8.2-12.6-12.2-18.9c-1.4-2.1-2.7-4.3-3.7-6.6
		c-0.5-1.1-1.3-1.6-2.4-1.9c-3.2-0.8-6.4-0.9-9.6-1.2c-1.2-0.1-2.4,0.1-3.6,0.2"/>
	<path class="st1" d="M3,110.3c1.9,1,4,0.9,6,1.1c9.6,0.5,19.2,0.8,28.8,0.6c11.8-0.2,23.5,0.1,35.2-0.1c5.8-0.1,11.7-0.2,17.5-0.2
		c6-0.1,12.1-0.3,18.1-0.4c3.2-0.1,6.3-0.1,9.5-0.2c0.4,0,0.7-0.1,1-0.3c0.7-0.5,1.5-0.6,2.4-0.5"/>
	<path class="st1" d="M61.3,47.1c3.6-0.4,6.8-1.7,9.4-4.5c1.9-2,3-4.4,3.4-7.1c0.3-1.9,0.4-3.8,0.1-5.7c-0.4-2.6-1.9-4.5-3.6-6.2
		c-1.8-1.9-4.1-3.2-6.5-4.3c-3.4-1.5-6.7-1.1-9.7,0.7c-3.8,2.2-6.4,5.6-7.6,9.9c-0.5,1.9-0.4,3.8-0.1,5.7c0.3,2.5,1,4.9,2.7,6.9
		c2.6,3,5.8,4.8,9.8,5.2"/>
	<path class="st1" d="M32.3,74.2c-0.9,0.2-1.8-0.1-2.6-0.1c-2.6,0.1-5.2,0.2-7.9,0.3c-1.1,0.1-1.9,0.5-2.5,1.4
		c-2.7,3.8-4.8,7.9-6.8,12.1c-2.3,4.9-4.4,9.8-6.6,14.8c-1,2.4-2.3,4.8-2.6,7.5"/>
	<path class="st1" d="M91.1,30.2c0.2-5.9-1.4-11.2-4.9-16C83,9.7,78.5,6.8,73.4,4.7c-3-1.2-6.2-2.1-9.4-2.4
		c-8.2-0.9-16,0.3-22.5,5.8c-4,3.4-6.8,7.6-8.8,12.5c-1.4,3.4-2.2,7-2.7,10.6c-0.2,1.5,0,3.2,0,4.7c-0.5,8.2,1.9,15.7,6,22.8
		c4.1,7,8.8,13.5,14.6,19.2c2.1,2.1,4.4,4,7,5.7c2.7,1.7,5,2.1,7.9-0.4c3.4-2.8,6-6.4,8.7-9.8c4.3-5.4,7.8-11.3,10.7-17.7
		c2.3-5.1,4.1-10.3,5.3-15.8c0.7-3.1,1.1-6.4,0.9-9.6"/>
</g>
</svg>
