<?xml version="1.0" encoding="UTF-8"?><svg id="_レイヤー_2" xmlns="http://www.w3.org/2000/svg" viewBox="0 0 116 99.95"><defs><style>.cls-1{fill:none;stroke:#fff;stroke-linecap:round;stroke-linejoin:round;stroke-width:4px;}</style></defs><g id="_レイヤー_1-2"><path class="cls-1" d="m58.5,73.24V10.78s-8.5-5.53-21.5-7.53-25-1-25-1v72.5s13.35-.42,23.25,1.15c14.75,2.35,22.75,6.35,22.75,6.35,0,0,16.1-6,26.55-7.5s19.45-2.5,19.45-2.5V3.25s-7-2-19,0-21,7-21,7"/><path class="cls-1" d="m12,10.25h-7c-3,0-3,2.04-3,2.04v71.96l48,7s0,6.7,8.5,6.7,8.5-6.7,8.5-6.7l47-7V12.22s0-1.97-4-1.97c-6,0-4,0-4,0"/></g></svg>