<?xml version="1.0" encoding="UTF-8"?><svg id="_レイヤー_2" xmlns="http://www.w3.org/2000/svg" viewBox="0 0 94.17 119.73"><defs><style>.cls-1{fill:none;stroke:#7a2f27;stroke-linecap:round;stroke-linejoin:round;stroke-width:4px;}</style></defs><g id="_レイヤー_1-2"><path class="cls-1" d="m71.77,81.68c-1.62.24-2.72,1.4-4.01,2.24-2.58,1.67-5.32,3.04-8.24,4.01-.89.3-1.7.72-2.37,1.38"/><path class="cls-1" d="m60.27,60.8c2-2,2.47-4.16,2.88-5.25.65-1.74,1-3.52,1-5.38,0-2.69.11-5.39-.65-8-1.14-3.91-1.66-5.23-4.23-8.38-.5-.61-2.55-2.58-3.12-2.62"/><path class="cls-1" d="m43.77,16.68c-2.14.16-4.26.35-6.38.74-7.58,1.39-14.68,3.69-19.62,10.14-2.63,3.44-4.43,7.19-4.93,11.61-.81,7.16.63,13.86,3.42,20.38,1.64,3.82,3.8,7.3,6.76,10.24,3.89,3.86,8.71,5.89,13.99,7.02,3.9.84,7.85.85,11.75.43,5.65-.61,10.75-2.8,15.26-6.31,4.23-3.29,6.43-7.82,7.99-12.76,1.08-3.41,1.72-6.91,1.75-10.5.06-6.68-2.15-12.67-5.64-18.24-1.99-3.18-4.4-6.06-7.26-8.48-3.24-2.75-7.24-3.57-11.35-4.05-1.88-.22-3.75-.21-5.63-.23"/><path class="cls-1" d="m36.02,2.93c-4.24.56-8.27,1.8-12.12,3.63C12.33,12.03,6.08,21.58,3.3,33.68c-1.12,4.87-1.43,9.88-1.25,14.87.23,6.49,1.27,12.86,3.47,19,.2.56.36,1.22.77,1.6,2,1.93,3.17,4.46,4.97,6.53,2.95,3.37,6.57,5.87,10.52,7.84,4.66,2.32,9.62,3.95,14.74,4.85,3.87.68,7.78,1.32,11.74,1.17,2.33-.09,4.67-.23,7-.37,1.1-.07,1.81.18,2.3,1.36.71,1.71,2.16,2.99,3.36,4.37,3.18,3.67,6.22,7.44,9.37,11.13,2.99,3.51,5.79,7.18,8.98,10.52,1.11,1.16,2.26,1.5,3.75.86,3.38-1.44,6.16-3.69,8.49-6.5.91-1.1.86-1.84.01-2.99-4.91-6.67-9.81-13.35-14.76-19.99-1.58-2.12-3.28-4.14-4.8-6.06.29-2.12,1.95-3.09,3.08-4.43,3.53-4.2,5.77-9.04,7.22-14.27,1.06-3.83,1.65-7.73,1.82-11.74.31-7.44-.68-14.63-3.17-21.63-3.32-9.3-8.73-17.09-16.91-22.7-3.77-2.59-8.12-3.89-12.71-4.47-2.59-.33-5.16-.49-7.75-.62-1.78-.09-3.38.7-5.13.71-.7,0-1.42.01-2.13.08"/></g></svg>