<?xml version="1.0" encoding="utf-8"?>
<!-- Generator: Adobe Illustrator 27.6.1, SVG Export Plug-In . SVG Version: 6.00 Build 0)  -->
<svg version="1.1" id="_レイヤー_2" xmlns="http://www.w3.org/2000/svg" xmlns:xlink="http://www.w3.org/1999/xlink" x="0px"
	 y="0px" viewBox="0 0 118 102" style="enable-background:new 0 0 118 102;" xml:space="preserve">
<style type="text/css">
	.st0{fill:none;stroke:#B3B3B3;stroke-width:4;stroke-linecap:round;stroke-linejoin:round;}
	.st1{fill:none;stroke:#FFFFFF;stroke-width:4;stroke-linecap:round;stroke-linejoin:round;}
</style>
<g id="_レイヤー_1-2">
	<path class="st0" d="M60.5,75.2V12.8c0,0-8.5-5.5-21.5-7.5s-25-1-25-1v72.5c0,0,13.4-0.4,23.2,1.2C52,80.3,60,84.3,60,84.3
		s16.1-6,26.6-7.5s19.4-2.5,19.4-2.5v-69c0,0-7-2-19,0s-21,7-21,7"/>
	<path class="st0" d="M14,12.3H7c-3,0-3,2-3,2v72l48,7c0,0,0,6.7,8.5,6.7s8.5-6.7,8.5-6.7l47-7v-72c0,0,0-2-4-2c-6,0-4,0-4,0"/>
</g>
<g id="_レイヤー_1-2_00000165921647855262586600000007050336319343221137_">
	<path class="st1" d="M58.5,73.2V10.8c0,0-8.5-5.5-21.5-7.5s-25-1-25-1v72.5c0,0,13.4-0.4,23.2,1.2C50,78.2,58,82.2,58,82.2
		s16.1-6,26.6-7.5s19.4-2.5,19.4-2.5v-69c0,0-7-2-19,0s-21,7-21,7"/>
	<path class="st1" d="M12,10.2H5c-3,0-3,2-3,2v72l48,7c0,0,0,6.7,8.5,6.7s8.5-6.7,8.5-6.7l47-7v-72c0,0,0-2-4-2c-6,0-4,0-4,0"/>
</g>
</svg>
