<?xml version="1.0" encoding="UTF-8"?><svg id="_レイヤー_2" xmlns="http://www.w3.org/2000/svg" viewBox="0 0 122.5 113.98"><defs><style>.cls-1{fill:none;stroke:#7a2f27;stroke-linecap:round;stroke-linejoin:round;stroke-width:4px;}</style></defs><g id="_レイヤー_1-2"><path class="cls-1" d="m119,110.2c-.48-3.4-2.68-5.97-4.41-8.73-3.98-6.36-8.16-12.59-12.2-18.91-1.37-2.14-2.71-4.3-3.74-6.62-.49-1.1-1.3-1.61-2.39-1.87-3.17-.76-6.41-.94-9.63-1.22-1.19-.1-2.41.14-3.62.22"/><path class="cls-1" d="m2,110.26c1.89,1,3.95.95,6,1.07,9.58.53,19.16.77,28.75.6,11.75-.2,23.5.05,35.25-.14,5.83-.09,11.67-.17,17.5-.23,6.04-.06,12.08-.27,18.12-.43,3.17-.09,6.34-.09,9.5-.18.36,0,.7-.05,1-.26.72-.52,1.54-.55,2.38-.5"/><path class="cls-1" d="m60.25,47.07c3.64-.42,6.85-1.72,9.38-4.5,1.86-2.04,2.96-4.41,3.38-7.13.3-1.92.4-3.83.11-5.75-.38-2.56-1.91-4.48-3.64-6.24-1.85-1.87-4.07-3.22-6.48-4.27-3.36-1.46-6.67-1.08-9.73.66-3.85,2.2-6.42,5.56-7.62,9.85-.52,1.86-.39,3.83-.14,5.74.33,2.51,1,4.88,2.72,6.89,2.59,3.03,5.8,4.82,9.77,5.24"/><path class="cls-1" d="m31.25,74.2c-.88.15-1.76-.11-2.62-.1-2.63.05-5.25.23-7.88.34-1.06.05-1.88.47-2.51,1.37-2.68,3.81-4.79,7.91-6.77,12.12-2.3,4.88-4.44,9.82-6.57,14.77-1.04,2.42-2.27,4.81-2.59,7.49"/><path class="cls-1" d="m90.12,30.2c.21-5.89-1.41-11.24-4.88-15.99-3.29-4.49-7.76-7.42-12.86-9.52-3.02-1.24-6.19-2.09-9.39-2.43-8.17-.87-15.95.34-22.47,5.84-3.98,3.36-6.78,7.65-8.79,12.47-1.43,3.42-2.16,7.01-2.69,10.64-.23,1.55.05,3.17-.05,4.74-.51,8.25,1.88,15.74,6.02,22.75,4.13,6.98,8.83,13.54,14.64,19.23,2.14,2.09,4.43,4.03,6.98,5.65,2.71,1.72,4.98,2.08,7.88-.37,3.37-2.85,6-6.36,8.72-9.77,4.33-5.43,7.85-11.35,10.68-17.72,2.27-5.1,4.09-10.34,5.3-15.77.7-3.14,1.1-6.36.91-9.62"/></g></svg>