<?xml version="1.0" encoding="UTF-8"?>
<!DOCTYPE svg PUBLIC "-//W3C//DTD SVG 1.1//EN" "http://www.w3.org/Graphics/SVG/1.1/DTD/svg11.dtd">
<svg xmlns="http://www.w3.org/2000/svg" version="1.1" width="1980px" height="200px" style="shape-rendering:geometricPrecision; text-rendering:geometricPrecision; image-rendering:optimizeQuality; fill-rule:evenodd; clip-rule:evenodd" xmlns:xlink="http://www.w3.org/1999/xlink">
<g><path style="opacity:0.995" fill="#fef7e1" d="M -0.5,-0.5 C 659.5,-0.5 1319.5,-0.5 1979.5,-0.5C 1979.5,42.1667 1979.5,84.8333 1979.5,127.5C 1932.83,143.556 1884.83,150.389 1835.5,148C 1813.6,145.739 1791.93,142.072 1770.5,137C 1715.18,121.92 1659.51,108.254 1603.5,96C 1537.63,82.8275 1471.63,82.1608 1405.5,94C 1348.05,104.02 1290.71,114.687 1233.5,126C 1184.6,135.445 1135.27,140.612 1085.5,141.5C 1026.12,140.279 967.454,133.113 909.5,120C 864.251,109.95 818.917,100.283 773.5,91C 745.362,85.5993 717.029,81.5993 688.5,79C 651.361,77.5503 614.361,79.217 577.5,84C 549.42,87.4401 521.42,91.4401 493.5,96C 436.554,105.991 379.554,115.658 322.5,125C 272.071,132.601 221.404,134.601 170.5,131C 131.247,129.441 92.2467,125.441 53.5,119C 35.1515,115.746 17.1515,111.246 -0.5,105.5C -0.5,70.1667 -0.5,34.8333 -0.5,-0.5 Z"/></g>
</svg>
